<svg xmlns="http://www.w3.org/2000/svg" xmlns:xlink="http://www.w3.org/1999/xlink" viewBox="0 0 1000 1000" width="1000" height="1000" preserveAspectRatio="xMidYMid meet" style="width: 100%; height: 100%; transform: translate3d(0px, 0px, 0px); content-visibility: visible;"><defs><clipPath id="__lottie_element_3"><rect width="1000" height="1000" x="0" y="0"></rect></clipPath></defs><g clip-path="url(#__lottie_element_3)"><g transform="matrix(0.699999988079071,0,0,0.699999988079071,768.5,190.5)" opacity="1" style="display: block;"><g opacity="1" transform="matrix(1,0,0,1,0,0)"><path fill="rgb(0,0,0)" fill-opacity="1" d=" M3.872999906539917,-3.7260000705718994 C3.872999906539917,-3.7260000705718994 13.677000045776367,-1.9129999876022339 13.677000045776367,-1.9129999876022339 C13.687999725341797,-1.812000036239624 7.038000106811523,3.562000036239624 7.038000106811523,3.562000036239624 C6.440999984741211,3.996000051498413 9.57699966430664,13.048999786376953 8.241000175476074,12.079000473022461 C8.241000175476074,12.079000473022461 0.625,8.687000274658203 0.4359999895095825,8.607000350952148 C0.4359999895095825,8.607000350952148 -7.553999900817871,12.015999794006348 -7.553999900817871,12.015999794006348 C-8.890000343322754,12.986000061035156 -5.440999984741211,3.996000051498413 -6.038000106811523,3.562000036239624 C-6.038000106811523,3.562000036239624 -13,-3.125 -13.026000022888184,-3.1630001068115234 C-13.026000022888184,-3.1630001068115234 -3.936000108718872,-3.6010000705718994 -3.936000108718872,-3.6010000705718994 C-3.197999954223633,-3.6010000705718994 -0.30799999833106995,-12.633000373840332 -0.30799999833106995,-12.633000373840332 C1.375,-9.562999725341797 3.134999990463257,-3.7260000705718994 3.872999906539917,-3.7260000705718994z"></path><path stroke-linecap="butt" stroke-linejoin="round" fill-opacity="0" stroke="rgb(255,255,255)" stroke-opacity="1" stroke-width="5" d=" M3.872999906539917,-3.7260000705718994 C3.872999906539917,-3.7260000705718994 13.677000045776367,-1.9129999876022339 13.677000045776367,-1.9129999876022339 C13.687999725341797,-1.812000036239624 7.038000106811523,3.562000036239624 7.038000106811523,3.562000036239624 C6.440999984741211,3.996000051498413 9.57699966430664,13.048999786376953 8.241000175476074,12.079000473022461 C8.241000175476074,12.079000473022461 0.625,8.687000274658203 0.4359999895095825,8.607000350952148 C0.4359999895095825,8.607000350952148 -7.553999900817871,12.015999794006348 -7.553999900817871,12.015999794006348 C-8.890000343322754,12.986000061035156 -5.440999984741211,3.996000051498413 -6.038000106811523,3.562000036239624 C-6.038000106811523,3.562000036239624 -13,-3.125 -13.026000022888184,-3.1630001068115234 C-13.026000022888184,-3.1630001068115234 -3.936000108718872,-3.6010000705718994 -3.936000108718872,-3.6010000705718994 C-3.197999954223633,-3.6010000705718994 -0.30799999833106995,-12.633000373840332 -0.30799999833106995,-12.633000373840332 C1.375,-9.562999725341797 3.134999990463257,-3.7260000705718994 3.872999906539917,-3.7260000705718994z"></path></g></g><g transform="matrix(0.699999988079071,0,0,0.699999988079071,224.49990844726562,622.5001220703125)" opacity="1" style="display: block;"><g opacity="1" transform="matrix(1,0,0,1,0,0)"><path fill="rgb(0,0,0)" fill-opacity="1" d=" M3.872999906539917,-3.7260000705718994 C3.872999906539917,-3.7260000705718994 13.677000045776367,-1.9129999876022339 13.677000045776367,-1.9129999876022339 C13.687999725341797,-1.812000036239624 7.038000106811523,3.562000036239624 7.038000106811523,3.562000036239624 C6.440999984741211,3.996000051498413 9.57699966430664,13.048999786376953 8.241000175476074,12.079000473022461 C8.241000175476074,12.079000473022461 0.625,8.687000274658203 0.4359999895095825,8.607000350952148 C0.4359999895095825,8.607000350952148 -7.553999900817871,12.015999794006348 -7.553999900817871,12.015999794006348 C-8.890000343322754,12.986000061035156 -5.440999984741211,3.996000051498413 -6.038000106811523,3.562000036239624 C-6.038000106811523,3.562000036239624 -13,-3.125 -13.026000022888184,-3.1630001068115234 C-13.026000022888184,-3.1630001068115234 -3.936000108718872,-3.6010000705718994 -3.936000108718872,-3.6010000705718994 C-3.197999954223633,-3.6010000705718994 -0.30799999833106995,-12.633000373840332 -0.30799999833106995,-12.633000373840332 C1.375,-9.562999725341797 3.134999990463257,-3.7260000705718994 3.872999906539917,-3.7260000705718994z"></path><path stroke-linecap="butt" stroke-linejoin="round" fill-opacity="0" stroke="rgb(255,255,255)" stroke-opacity="1" stroke-width="5" d=" M3.872999906539917,-3.7260000705718994 C3.872999906539917,-3.7260000705718994 13.677000045776367,-1.9129999876022339 13.677000045776367,-1.9129999876022339 C13.687999725341797,-1.812000036239624 7.038000106811523,3.562000036239624 7.038000106811523,3.562000036239624 C6.440999984741211,3.996000051498413 9.57699966430664,13.048999786376953 8.241000175476074,12.079000473022461 C8.241000175476074,12.079000473022461 0.625,8.687000274658203 0.4359999895095825,8.607000350952148 C0.4359999895095825,8.607000350952148 -7.553999900817871,12.015999794006348 -7.553999900817871,12.015999794006348 C-8.890000343322754,12.986000061035156 -5.440999984741211,3.996000051498413 -6.038000106811523,3.562000036239624 C-6.038000106811523,3.562000036239624 -13,-3.125 -13.026000022888184,-3.1630001068115234 C-13.026000022888184,-3.1630001068115234 -3.936000108718872,-3.6010000705718994 -3.936000108718872,-3.6010000705718994 C-3.197999954223633,-3.6010000705718994 -0.30799999833106995,-12.633000373840332 -0.30799999833106995,-12.633000373840332 C1.375,-9.562999725341797 3.134999990463257,-3.7260000705718994 3.872999906539917,-3.7260000705718994z"></path></g></g><g transform="matrix(0.9999989867210388,0,0,0.9999989867210388,724.5001220703125,798.4996948242188)" opacity="1" style="display: block;"><g opacity="1" transform="matrix(1,0,0,1,0,0)"><path fill="rgb(0,0,0)" fill-opacity="1" d=" M3.872999906539917,-3.7260000705718994 C3.872999906539917,-3.7260000705718994 13.677000045776367,-1.9129999876022339 13.677000045776367,-1.9129999876022339 C13.687999725341797,-1.812000036239624 7.038000106811523,3.562000036239624 7.038000106811523,3.562000036239624 C6.440999984741211,3.996000051498413 9.57699966430664,13.048999786376953 8.241000175476074,12.079000473022461 C8.241000175476074,12.079000473022461 0.625,8.687000274658203 0.4359999895095825,8.607000350952148 C0.4359999895095825,8.607000350952148 -7.553999900817871,12.015999794006348 -7.553999900817871,12.015999794006348 C-8.890000343322754,12.986000061035156 -5.440999984741211,3.996000051498413 -6.038000106811523,3.562000036239624 C-6.038000106811523,3.562000036239624 -13,-3.125 -13.026000022888184,-3.1630001068115234 C-13.026000022888184,-3.1630001068115234 -3.936000108718872,-3.6010000705718994 -3.936000108718872,-3.6010000705718994 C-3.197999954223633,-3.6010000705718994 -0.30799999833106995,-12.633000373840332 -0.30799999833106995,-12.633000373840332 C1.375,-9.562999725341797 3.134999990463257,-3.7260000705718994 3.872999906539917,-3.7260000705718994z"></path><path stroke-linecap="butt" stroke-linejoin="round" fill-opacity="0" stroke="rgb(255,255,255)" stroke-opacity="1" stroke-width="5" d=" M3.872999906539917,-3.7260000705718994 C3.872999906539917,-3.7260000705718994 13.677000045776367,-1.9129999876022339 13.677000045776367,-1.9129999876022339 C13.687999725341797,-1.812000036239624 7.038000106811523,3.562000036239624 7.038000106811523,3.562000036239624 C6.440999984741211,3.996000051498413 9.57699966430664,13.048999786376953 8.241000175476074,12.079000473022461 C8.241000175476074,12.079000473022461 0.625,8.687000274658203 0.4359999895095825,8.607000350952148 C0.4359999895095825,8.607000350952148 -7.553999900817871,12.015999794006348 -7.553999900817871,12.015999794006348 C-8.890000343322754,12.986000061035156 -5.440999984741211,3.996000051498413 -6.038000106811523,3.562000036239624 C-6.038000106811523,3.562000036239624 -13,-3.125 -13.026000022888184,-3.1630001068115234 C-13.026000022888184,-3.1630001068115234 -3.936000108718872,-3.6010000705718994 -3.936000108718872,-3.6010000705718994 C-3.197999954223633,-3.6010000705718994 -0.30799999833106995,-12.633000373840332 -0.30799999833106995,-12.633000373840332 C1.375,-9.562999725341797 3.134999990463257,-3.7260000705718994 3.872999906539917,-3.7260000705718994z"></path></g></g><g transform="matrix(0.5000029802322388,0,0,0.5000029802322388,136.5001220703125,910.4996948242188)" opacity="1" style="display: block;"><g opacity="1" transform="matrix(1,0,0,1,0,0)"><path fill="rgb(0,0,0)" fill-opacity="1" d=" M3.872999906539917,-3.7260000705718994 C3.872999906539917,-3.7260000705718994 13.677000045776367,-1.9129999876022339 13.677000045776367,-1.9129999876022339 C13.687999725341797,-1.812000036239624 7.038000106811523,3.562000036239624 7.038000106811523,3.562000036239624 C6.440999984741211,3.996000051498413 9.57699966430664,13.048999786376953 8.241000175476074,12.079000473022461 C8.241000175476074,12.079000473022461 0.625,8.687000274658203 0.4359999895095825,8.607000350952148 C0.4359999895095825,8.607000350952148 -7.553999900817871,12.015999794006348 -7.553999900817871,12.015999794006348 C-8.890000343322754,12.986000061035156 -5.440999984741211,3.996000051498413 -6.038000106811523,3.562000036239624 C-6.038000106811523,3.562000036239624 -13,-3.125 -13.026000022888184,-3.1630001068115234 C-13.026000022888184,-3.1630001068115234 -3.936000108718872,-3.6010000705718994 -3.936000108718872,-3.6010000705718994 C-3.197999954223633,-3.6010000705718994 -0.30799999833106995,-12.633000373840332 -0.30799999833106995,-12.633000373840332 C1.375,-9.562999725341797 3.134999990463257,-3.7260000705718994 3.872999906539917,-3.7260000705718994z"></path><path stroke-linecap="butt" stroke-linejoin="round" fill-opacity="0" stroke="rgb(255,255,255)" stroke-opacity="1" stroke-width="5" d=" M3.872999906539917,-3.7260000705718994 C3.872999906539917,-3.7260000705718994 13.677000045776367,-1.9129999876022339 13.677000045776367,-1.9129999876022339 C13.687999725341797,-1.812000036239624 7.038000106811523,3.562000036239624 7.038000106811523,3.562000036239624 C6.440999984741211,3.996000051498413 9.57699966430664,13.048999786376953 8.241000175476074,12.079000473022461 C8.241000175476074,12.079000473022461 0.625,8.687000274658203 0.4359999895095825,8.607000350952148 C0.4359999895095825,8.607000350952148 -7.553999900817871,12.015999794006348 -7.553999900817871,12.015999794006348 C-8.890000343322754,12.986000061035156 -5.440999984741211,3.996000051498413 -6.038000106811523,3.562000036239624 C-6.038000106811523,3.562000036239624 -13,-3.125 -13.026000022888184,-3.1630001068115234 C-13.026000022888184,-3.1630001068115234 -3.936000108718872,-3.6010000705718994 -3.936000108718872,-3.6010000705718994 C-3.197999954223633,-3.6010000705718994 -0.30799999833106995,-12.633000373840332 -0.30799999833106995,-12.633000373840332 C1.375,-9.562999725341797 3.134999990463257,-3.7260000705718994 3.872999906539917,-3.7260000705718994z"></path></g></g><g transform="matrix(0.9999989867210388,0,0,0.9999989867210388,352.4997863769531,554.5)" opacity="1" style="display: block;"><g opacity="1" transform="matrix(1,0,0,1,0,0)"><path fill="rgb(0,0,0)" fill-opacity="1" d=" M3.872999906539917,-3.7260000705718994 C3.872999906539917,-3.7260000705718994 13.677000045776367,-1.9129999876022339 13.677000045776367,-1.9129999876022339 C13.687999725341797,-1.812000036239624 7.038000106811523,3.562000036239624 7.038000106811523,3.562000036239624 C6.440999984741211,3.996000051498413 9.57699966430664,13.048999786376953 8.241000175476074,12.079000473022461 C8.241000175476074,12.079000473022461 0.625,8.687000274658203 0.4359999895095825,8.607000350952148 C0.4359999895095825,8.607000350952148 -7.553999900817871,12.015999794006348 -7.553999900817871,12.015999794006348 C-8.890000343322754,12.986000061035156 -5.440999984741211,3.996000051498413 -6.038000106811523,3.562000036239624 C-6.038000106811523,3.562000036239624 -13,-3.125 -13.026000022888184,-3.1630001068115234 C-13.026000022888184,-3.1630001068115234 -3.936000108718872,-3.6010000705718994 -3.936000108718872,-3.6010000705718994 C-3.197999954223633,-3.6010000705718994 -0.30799999833106995,-12.633000373840332 -0.30799999833106995,-12.633000373840332 C1.375,-9.562999725341797 3.134999990463257,-3.7260000705718994 3.872999906539917,-3.7260000705718994z"></path><path stroke-linecap="butt" stroke-linejoin="round" fill-opacity="0" stroke="rgb(255,255,255)" stroke-opacity="1" stroke-width="5" d=" M3.872999906539917,-3.7260000705718994 C3.872999906539917,-3.7260000705718994 13.677000045776367,-1.9129999876022339 13.677000045776367,-1.9129999876022339 C13.687999725341797,-1.812000036239624 7.038000106811523,3.562000036239624 7.038000106811523,3.562000036239624 C6.440999984741211,3.996000051498413 9.57699966430664,13.048999786376953 8.241000175476074,12.079000473022461 C8.241000175476074,12.079000473022461 0.625,8.687000274658203 0.4359999895095825,8.607000350952148 C0.4359999895095825,8.607000350952148 -7.553999900817871,12.015999794006348 -7.553999900817871,12.015999794006348 C-8.890000343322754,12.986000061035156 -5.440999984741211,3.996000051498413 -6.038000106811523,3.562000036239624 C-6.038000106811523,3.562000036239624 -13,-3.125 -13.026000022888184,-3.1630001068115234 C-13.026000022888184,-3.1630001068115234 -3.936000108718872,-3.6010000705718994 -3.936000108718872,-3.6010000705718994 C-3.197999954223633,-3.6010000705718994 -0.30799999833106995,-12.633000373840332 -0.30799999833106995,-12.633000373840332 C1.375,-9.562999725341797 3.134999990463257,-3.7260000705718994 3.872999906539917,-3.7260000705718994z"></path></g></g><g transform="matrix(0.5000029802322388,0,0,0.5000029802322388,252.49990844726562,126.49970245361328)" opacity="1" style="display: block;"><g opacity="1" transform="matrix(1,0,0,1,0,0)"><path fill="rgb(0,0,0)" fill-opacity="1" d=" M3.872999906539917,-3.7260000705718994 C3.872999906539917,-3.7260000705718994 13.677000045776367,-1.9129999876022339 13.677000045776367,-1.9129999876022339 C13.687999725341797,-1.812000036239624 7.038000106811523,3.562000036239624 7.038000106811523,3.562000036239624 C6.440999984741211,3.996000051498413 9.57699966430664,13.048999786376953 8.241000175476074,12.079000473022461 C8.241000175476074,12.079000473022461 0.625,8.687000274658203 0.4359999895095825,8.607000350952148 C0.4359999895095825,8.607000350952148 -7.553999900817871,12.015999794006348 -7.553999900817871,12.015999794006348 C-8.890000343322754,12.986000061035156 -5.440999984741211,3.996000051498413 -6.038000106811523,3.562000036239624 C-6.038000106811523,3.562000036239624 -13,-3.125 -13.026000022888184,-3.1630001068115234 C-13.026000022888184,-3.1630001068115234 -3.936000108718872,-3.6010000705718994 -3.936000108718872,-3.6010000705718994 C-3.197999954223633,-3.6010000705718994 -0.30799999833106995,-12.633000373840332 -0.30799999833106995,-12.633000373840332 C1.375,-9.562999725341797 3.134999990463257,-3.7260000705718994 3.872999906539917,-3.7260000705718994z"></path><path stroke-linecap="butt" stroke-linejoin="round" fill-opacity="0" stroke="rgb(255,255,255)" stroke-opacity="1" stroke-width="5" d=" M3.872999906539917,-3.7260000705718994 C3.872999906539917,-3.7260000705718994 13.677000045776367,-1.9129999876022339 13.677000045776367,-1.9129999876022339 C13.687999725341797,-1.812000036239624 7.038000106811523,3.562000036239624 7.038000106811523,3.562000036239624 C6.440999984741211,3.996000051498413 9.57699966430664,13.048999786376953 8.241000175476074,12.079000473022461 C8.241000175476074,12.079000473022461 0.625,8.687000274658203 0.4359999895095825,8.607000350952148 C0.4359999895095825,8.607000350952148 -7.553999900817871,12.015999794006348 -7.553999900817871,12.015999794006348 C-8.890000343322754,12.986000061035156 -5.440999984741211,3.996000051498413 -6.038000106811523,3.562000036239624 C-6.038000106811523,3.562000036239624 -13,-3.125 -13.026000022888184,-3.1630001068115234 C-13.026000022888184,-3.1630001068115234 -3.936000108718872,-3.6010000705718994 -3.936000108718872,-3.6010000705718994 C-3.197999954223633,-3.6010000705718994 -0.30799999833106995,-12.633000373840332 -0.30799999833106995,-12.633000373840332 C1.375,-9.562999725341797 3.134999990463257,-3.7260000705718994 3.872999906539917,-3.7260000705718994z"></path></g></g><g transform="matrix(0.699999988079071,0,0,0.699999988079071,732.4996948242188,434.49969482421875)" opacity="1" style="display: block;"><g opacity="1" transform="matrix(1,0,0,1,0,0)"><path fill="rgb(0,0,0)" fill-opacity="1" d=" M3.872999906539917,-3.7260000705718994 C3.872999906539917,-3.7260000705718994 13.677000045776367,-1.9129999876022339 13.677000045776367,-1.9129999876022339 C13.687999725341797,-1.812000036239624 7.038000106811523,3.562000036239624 7.038000106811523,3.562000036239624 C6.440999984741211,3.996000051498413 9.57699966430664,13.048999786376953 8.241000175476074,12.079000473022461 C8.241000175476074,12.079000473022461 0.625,8.687000274658203 0.4359999895095825,8.607000350952148 C0.4359999895095825,8.607000350952148 -7.553999900817871,12.015999794006348 -7.553999900817871,12.015999794006348 C-8.890000343322754,12.986000061035156 -5.440999984741211,3.996000051498413 -6.038000106811523,3.562000036239624 C-6.038000106811523,3.562000036239624 -13,-3.125 -13.026000022888184,-3.1630001068115234 C-13.026000022888184,-3.1630001068115234 -3.936000108718872,-3.6010000705718994 -3.936000108718872,-3.6010000705718994 C-3.197999954223633,-3.6010000705718994 -0.30799999833106995,-12.633000373840332 -0.30799999833106995,-12.633000373840332 C1.375,-9.562999725341797 3.134999990463257,-3.7260000705718994 3.872999906539917,-3.7260000705718994z"></path><path stroke-linecap="butt" stroke-linejoin="round" fill-opacity="0" stroke="rgb(255,255,255)" stroke-opacity="1" stroke-width="5" d=" M3.872999906539917,-3.7260000705718994 C3.872999906539917,-3.7260000705718994 13.677000045776367,-1.9129999876022339 13.677000045776367,-1.9129999876022339 C13.687999725341797,-1.812000036239624 7.038000106811523,3.562000036239624 7.038000106811523,3.562000036239624 C6.440999984741211,3.996000051498413 9.57699966430664,13.048999786376953 8.241000175476074,12.079000473022461 C8.241000175476074,12.079000473022461 0.625,8.687000274658203 0.4359999895095825,8.607000350952148 C0.4359999895095825,8.607000350952148 -7.553999900817871,12.015999794006348 -7.553999900817871,12.015999794006348 C-8.890000343322754,12.986000061035156 -5.440999984741211,3.996000051498413 -6.038000106811523,3.562000036239624 C-6.038000106811523,3.562000036239624 -13,-3.125 -13.026000022888184,-3.1630001068115234 C-13.026000022888184,-3.1630001068115234 -3.936000108718872,-3.6010000705718994 -3.936000108718872,-3.6010000705718994 C-3.197999954223633,-3.6010000705718994 -0.30799999833106995,-12.633000373840332 -0.30799999833106995,-12.633000373840332 C1.375,-9.562999725341797 3.134999990463257,-3.7260000705718994 3.872999906539917,-3.7260000705718994z"></path></g></g><g transform="matrix(0.8000020384788513,0,0,0.8000020384788513,926.4998168945312,148.5)" opacity="1" style="display: block;"><g opacity="1" transform="matrix(1,0,0,1,0,0)"><path fill="rgb(0,0,0)" fill-opacity="1" d=" M3.872999906539917,-3.7260000705718994 C3.872999906539917,-3.7260000705718994 13.677000045776367,-1.9129999876022339 13.677000045776367,-1.9129999876022339 C13.687999725341797,-1.812000036239624 7.038000106811523,3.562000036239624 7.038000106811523,3.562000036239624 C6.440999984741211,3.996000051498413 9.57699966430664,13.048999786376953 8.241000175476074,12.079000473022461 C8.241000175476074,12.079000473022461 0.625,8.687000274658203 0.4359999895095825,8.607000350952148 C0.4359999895095825,8.607000350952148 -7.553999900817871,12.015999794006348 -7.553999900817871,12.015999794006348 C-8.890000343322754,12.986000061035156 -5.440999984741211,3.996000051498413 -6.038000106811523,3.562000036239624 C-6.038000106811523,3.562000036239624 -13,-3.125 -13.026000022888184,-3.1630001068115234 C-13.026000022888184,-3.1630001068115234 -3.936000108718872,-3.6010000705718994 -3.936000108718872,-3.6010000705718994 C-3.197999954223633,-3.6010000705718994 -0.30799999833106995,-12.633000373840332 -0.30799999833106995,-12.633000373840332 C1.375,-9.562999725341797 3.134999990463257,-3.7260000705718994 3.872999906539917,-3.7260000705718994z"></path><path stroke-linecap="butt" stroke-linejoin="round" fill-opacity="0" stroke="rgb(255,255,255)" stroke-opacity="1" stroke-width="5" d=" M3.872999906539917,-3.7260000705718994 C3.872999906539917,-3.7260000705718994 13.677000045776367,-1.9129999876022339 13.677000045776367,-1.9129999876022339 C13.687999725341797,-1.812000036239624 7.038000106811523,3.562000036239624 7.038000106811523,3.562000036239624 C6.440999984741211,3.996000051498413 9.57699966430664,13.048999786376953 8.241000175476074,12.079000473022461 C8.241000175476074,12.079000473022461 0.625,8.687000274658203 0.4359999895095825,8.607000350952148 C0.4359999895095825,8.607000350952148 -7.553999900817871,12.015999794006348 -7.553999900817871,12.015999794006348 C-8.890000343322754,12.986000061035156 -5.440999984741211,3.996000051498413 -6.038000106811523,3.562000036239624 C-6.038000106811523,3.562000036239624 -13,-3.125 -13.026000022888184,-3.1630001068115234 C-13.026000022888184,-3.1630001068115234 -3.936000108718872,-3.6010000705718994 -3.936000108718872,-3.6010000705718994 C-3.197999954223633,-3.6010000705718994 -0.30799999833106995,-12.633000373840332 -0.30799999833106995,-12.633000373840332 C1.375,-9.562999725341797 3.134999990463257,-3.7260000705718994 3.872999906539917,-3.7260000705718994z"></path></g></g><g transform="matrix(0.9412821531295776,0.3376210331916809,-0.3376210331916809,0.9412821531295776,541.37890625,582.57421875)" opacity="1" style="display: block;"><g opacity="1" transform="matrix(1,0,0,1,0,0)"><path stroke-linecap="round" stroke-linejoin="miter" fill-opacity="0" stroke-miterlimit="10" stroke="rgb(255,255,255)" stroke-opacity="1" stroke-width="40" d=" M47.84400177001953,115.6050033569336 C47.84400177001953,115.6050033569336 61.327999114990234,149.2209930419922 61.72200012207031,181.54200744628906 C62.11600112915039,213.86300659179688 49.755001068115234,235.89300537109375 49.755001068115234,235.89300537109375"></path></g><g opacity="1" transform="matrix(1,0,0,1,0,0)"><path stroke-linecap="butt" stroke-linejoin="miter" fill-opacity="0" stroke-miterlimit="4" stroke="rgb(0,0,0)" stroke-opacity="1" stroke-width="2" d=" M77,143 C77,143 86.5,181.5 78,217"></path></g></g><g transform="matrix(0.9905214309692383,-0.13735811412334442,0.13735811412334442,0.9905214309692383,502.1909484863281,602.8301391601562)" opacity="1" style="display: block;"><g opacity="1" transform="matrix(1,0,0,1,0,0)"><path stroke-linecap="round" stroke-linejoin="miter" fill-opacity="0" stroke-miterlimit="10" stroke="rgb(255,255,255)" stroke-opacity="1" stroke-width="40" d=" M79.7699966430664,-10.939000129699707 C79.7699966430664,-10.939000129699707 98.12100219726562,18.826000213623047 103.41899871826172,49.88600158691406 C108.71700286865234,80.94599914550781 99.92400360107422,104.56999969482422 99.92400360107422,104.56999969482422"></path></g><g opacity="1" transform="matrix(1,0,0,1,0,0)"><path stroke-linecap="butt" stroke-linejoin="miter" fill-opacity="0" stroke-miterlimit="4" stroke="rgb(0,0,0)" stroke-opacity="1" stroke-width="2" d=" M110.5,5.5 C110.5,5.5 127,41 125,80 M80.125,103 C80.125,103 79.25,122.75 96.875,124.25 C114.5,125.75 118.25,111 118.25,111"></path></g></g><g transform="matrix(1,0,0,1,500,592)" opacity="1" style="display: block;"><g opacity="1" transform="matrix(1,0,0,1,73.28600311279297,-13.991000175476074)"><path fill="rgb(0,0,0)" fill-opacity="1" d=" M0,-23.5 C13.393508911132812,-23.5 24.26799964904785,-12.969650268554688 24.26799964904785,0 C24.26799964904785,12.969650268554688 13.393508911132812,23.5 0,23.5 C-13.393508911132812,23.5 -24.26799964904785,12.969650268554688 -24.26799964904785,0 C-24.26799964904785,-12.969650268554688 -13.393508911132812,-23.5 0,-23.5z"></path><path stroke-linecap="butt" stroke-linejoin="miter" fill-opacity="0" stroke-miterlimit="10" stroke="rgb(255,255,255)" stroke-opacity="1" stroke-width="5" d=" M0,-23.5 C13.393508911132812,-23.5 24.26799964904785,-12.969650268554688 24.26799964904785,0 C24.26799964904785,12.969650268554688 13.393508911132812,23.5 0,23.5 C-13.393508911132812,23.5 -24.26799964904785,12.969650268554688 -24.26799964904785,0 C-24.26799964904785,-12.969650268554688 -13.393508911132812,-23.5 0,-23.5z"></path></g></g><g transform="matrix(1,0,0,1,500,592)" opacity="1" style="display: block;"><g opacity="1" transform="matrix(1,0,0,1,0,0)"><path fill="rgb(255,255,255)" fill-opacity="1" d=" M93.55599975585938,25.993000030517578 C93.55599975585938,-38.07600021362305 53.70899963378906,-47 4.556000232696533,-47 C-44.59700012207031,-47 -84.44400024414062,-38.07600021362305 -84.44400024414062,25.993000030517578 C-84.44400024414062,90.06199645996094 -44.59700012207031,142 4.556000232696533,142 C53.70899963378906,142 93.55599975585938,90.06199645996094 93.55599975585938,25.993000030517578z"></path></g><g opacity="1" transform="matrix(1,0,0,1,0,0)"><path fill="rgb(0,0,0)" fill-opacity="1" d=" M29.72800064086914,16.979000091552734 C33.183998107910156,3.681999921798706 35.17300033569336,-11.085000038146973 32.47700119018555,-23.89699935913086 C46.564998626708984,-27.0049991607666 56.055999755859375,-32.82600021362305 56.055999755859375,-39.5 C56.055999755859375,-49.441001892089844 35.01300048828125,-57.5 9.055999755859375,-57.5 C-16.900999069213867,-57.5 -37.944000244140625,-49.441001892089844 -37.944000244140625,-39.5 C-37.944000244140625,-29.55900001525879 -16.900999069213867,-21.5 9.055999755859375,-21.5 C9.633999824523926,-21.5 10.206999778747559,-21.509000778198242 10.779999732971191,-21.517000198364258 C14.027999877929688,-13.95300006866455 16.841999053955078,0.8169999718666077 19.405000686645508,16.475000381469727 C19.792999267578125,18.844999313354492 21.729999542236328,20.658000946044922 24.121000289916992,20.884000778198242 C24.121000289916992,20.884000778198242 24.121000289916992,20.884000778198242 24.121000289916992,20.884000778198242 C26.69300079345703,21.12700080871582 29.077999114990234,19.479999542236328 29.72800064086914,16.979000091552734z"></path><path stroke-linecap="butt" stroke-linejoin="miter" fill-opacity="0" stroke-miterlimit="10" stroke="rgb(255,255,255)" stroke-opacity="1" stroke-width="5" d=" M29.72800064086914,16.979000091552734 C33.183998107910156,3.681999921798706 35.17300033569336,-11.085000038146973 32.47700119018555,-23.89699935913086 C46.564998626708984,-27.0049991607666 56.055999755859375,-32.82600021362305 56.055999755859375,-39.5 C56.055999755859375,-49.441001892089844 35.01300048828125,-57.5 9.055999755859375,-57.5 C-16.900999069213867,-57.5 -37.944000244140625,-49.441001892089844 -37.944000244140625,-39.5 C-37.944000244140625,-29.55900001525879 -16.900999069213867,-21.5 9.055999755859375,-21.5 C9.633999824523926,-21.5 10.206999778747559,-21.509000778198242 10.779999732971191,-21.517000198364258 C14.027999877929688,-13.95300006866455 16.841999053955078,0.8169999718666077 19.405000686645508,16.475000381469727 C19.792999267578125,18.844999313354492 21.729999542236328,20.658000946044922 24.121000289916992,20.884000778198242 C24.121000289916992,20.884000778198242 24.121000289916992,20.884000778198242 24.121000289916992,20.884000778198242 C26.69300079345703,21.12700080871582 29.077999114990234,19.479999542236328 29.72800064086914,16.979000091552734z"></path></g><g opacity="1" transform="matrix(1,0,0,1,0.5,0)"><path stroke-linecap="butt" stroke-linejoin="miter" fill-opacity="0" stroke-miterlimit="10" stroke="rgb(0,0,0)" stroke-opacity="1" stroke-width="2" d=" M73.55599975585938,-30 C95.05599975585938,-17.5 119.2959976196289,87.81800079345703 33.29600143432617,135.8179931640625"></path></g></g><g transform="matrix(0.9915651679039001,-0.12960901856422424,0.12960901856422424,0.9915651679039001,504.53778076171875,589.72705078125)" opacity="1" style="display: block;"><g opacity="1" transform="matrix(1,0,0,1,10.555999755859375,-168)"><path fill="rgb(255,255,255)" fill-opacity="1" d=" M0,-136 C75.05840301513672,-136 136,-75.05840301513672 136,0 C136,75.05840301513672 75.05840301513672,136 0,136 C-75.05840301513672,136 -136,75.05840301513672 -136,0 C-136,-75.05840301513672 -75.05840301513672,-136 0,-136z"></path></g><g opacity="1" transform="matrix(1,0,0,1,43.055999755859375,-168.50100708007812)"><path fill="rgb(0,0,0)" fill-opacity="1" d=" M0,-108.5 C61.148590087890625,-108.5 110.79650115966797,-59.88114929199219 110.79650115966797,0 C110.79650115966797,59.88114929199219 61.148590087890625,108.5 0,108.5 C-61.148590087890625,108.5 -110.79650115966797,59.88114929199219 -110.79650115966797,0 C-110.79650115966797,-59.88114929199219 -61.148590087890625,-108.5 0,-108.5z"></path><path stroke-linecap="butt" stroke-linejoin="miter" fill-opacity="0" stroke-miterlimit="10" stroke="rgb(255,255,255)" stroke-opacity="1" stroke-width="5" d=" M0,-108.5 C61.148590087890625,-108.5 110.79650115966797,-59.88114929199219 110.79650115966797,0 C110.79650115966797,59.88114929199219 61.148590087890625,108.5 0,108.5 C-61.148590087890625,108.5 -110.79650115966797,59.88114929199219 -110.79650115966797,0 C-110.79650115966797,-59.88114929199219 -61.148590087890625,-108.5 0,-108.5z"></path></g><g opacity="1" transform="matrix(1,0,0,1,58.555999755859375,-168)"><path fill="rgb(255,255,255)" fill-opacity="1" d=" M0,-94.5 C53.25835037231445,-94.5 96.5,-52.15454864501953 96.5,0 C96.5,52.15454864501953 53.25835037231445,94.5 0,94.5 C-53.25835037231445,94.5 -96.5,52.15454864501953 -96.5,0 C-96.5,-52.15454864501953 -53.25835037231445,-94.5 0,-94.5z"></path></g><g opacity="1" transform="matrix(1,0,0,1,10.555999755859375,-168)"><path stroke-linecap="butt" stroke-linejoin="miter" fill-opacity="0" stroke-miterlimit="4" stroke="rgb(0,0,0)" stroke-opacity="1" stroke-width="2" d=" M0,136 C-67.66600036621094,136 -123.79000091552734,86.58300018310547 -134.25100708007812,21.8700008392334 C-135.40199279785156,14.75 -136,7.445000171661377 -136,0 C-136,-75.11100006103516 -75.11100006103516,-136 0,-136"></path></g><g opacity="1" transform="matrix(1,0,0,1,0,0)"><path fill="rgb(0,0,0)" fill-opacity="1" d=" M-12.13700008392334,-168.5 C-12.13700008392334,-195.83799743652344 -0.9350000023841858,-218 -3.9630000591278076,-218 C-6.991000175476074,-218 -23.10300064086914,-195.83799743652344 -23.10300064086914,-168.5 C-23.10300064086914,-141.16200256347656 -6.991000175476074,-119 -3.9630000591278076,-119 C-0.9350000023841858,-119 -12.13700008392334,-141.16200256347656 -12.13700008392334,-168.5z"></path></g></g><g transform="matrix(0.8676526546478271,0.4971708357334137,-0.4971708357334137,0.8676526546478271,489.6258850097656,592.3617553710938)" opacity="1" style="display: block;"><g opacity="1" transform="matrix(1,0,0,1,0,0)"><path stroke-linecap="round" stroke-linejoin="miter" fill-opacity="0" stroke-miterlimit="10" stroke="rgb(255,255,255)" stroke-opacity="1" stroke-width="40" d=" M47.84400177001953,115.6050033569336 C47.84400177001953,115.6050033569336 61.327999114990234,149.2209930419922 61.72200012207031,181.54200744628906 C62.11600112915039,213.86300659179688 49.755001068115234,235.89300537109375 49.755001068115234,235.89300537109375"></path></g><g opacity="1" transform="matrix(1,0,0,1,0,0)"><path stroke-linecap="round" stroke-linejoin="miter" fill-opacity="0" stroke-miterlimit="4" stroke="rgb(0,0,0)" stroke-opacity="1" stroke-width="2" d=" M77,143 C77,143 86.5,181.5 78,217"></path></g></g><g transform="matrix(1,0,0,1,500,592)" opacity="1" style="display: block;"><g opacity="1" transform="matrix(1,0,0,1,-68.71399688720703,-13.991000175476074)"><path fill="rgb(0,0,0)" fill-opacity="1" d=" M0,-23.5 C12.969650268554688,-23.5 23.5,-12.969650268554688 23.5,0 C23.5,12.969650268554688 12.969650268554688,23.5 0,23.5 C-12.969650268554688,23.5 -23.5,12.969650268554688 -23.5,0 C-23.5,-12.969650268554688 -12.969650268554688,-23.5 0,-23.5z"></path><path stroke-linecap="butt" stroke-linejoin="miter" fill-opacity="0" stroke-miterlimit="10" stroke="rgb(255,255,255)" stroke-opacity="1" stroke-width="5" d=" M0,-23.5 C12.969650268554688,-23.5 23.5,-12.969650268554688 23.5,0 C23.5,12.969650268554688 12.969650268554688,23.5 0,23.5 C-12.969650268554688,23.5 -23.5,12.969650268554688 -23.5,0 C-23.5,-12.969650268554688 -12.969650268554688,-23.5 0,-23.5z"></path></g></g><g transform="matrix(0.9887171983718872,0.14979419112205505,-0.14979419112205505,0.9887171983718872,497.18408203125,602.3369140625)" opacity="1" style="display: block;"><g opacity="1" transform="matrix(1,0,0,1,0,0)"><path stroke-linecap="round" stroke-linejoin="miter" fill-opacity="0" stroke-miterlimit="10" stroke="rgb(255,255,255)" stroke-opacity="1" stroke-width="40" d=" M-72.99400329589844,-10.939000129699707 C-72.99400329589844,-10.939000129699707 -92.4520034790039,23.5049991607666 -98.80000305175781,58.99700164794922 C-105.14800262451172,94.48899841308594 -97.0530014038086,121.06900024414062 -97.0530014038086,121.06900024414062"></path></g><g opacity="1" transform="matrix(0.9902680516242981,-0.13917310535907745,0.13917310535907745,0.9902680516242981,-10.530868530273438,-9.6964111328125)"><path stroke-linecap="butt" stroke-linejoin="miter" fill-opacity="0" stroke-miterlimit="10" stroke="rgb(0,0,0)" stroke-opacity="1" stroke-width="2" d=" M-94.44400024414062,4.5 C-94.44400024414062,4.5 -123.5,43 -125.00599670410156,93.56300354003906 M-122.03900146484375,124.9540023803711 C-122.03900146484375,124.9540023803711 -117.83499908447266,140.64599609375 -97.78399658203125,136.44700622558594 C-83.15899658203125,133.38400268554688 -84.51499938964844,114.2020034790039 -84.51499938964844,114.2020034790039"></path></g><g opacity="1" transform="matrix(1,0,0,1,0,0)"><path stroke-linecap="round" stroke-linejoin="miter" fill-opacity="0" stroke-miterlimit="10" stroke="rgb(0,0,0)" stroke-opacity="1" stroke-width="3" d=" M-50.944000244140625,-8.5 C-50.944000244140625,-8.5 -80,30 -81.50599670410156,80.56300354003906"></path></g></g><g transform="matrix(0.9915651679039001,-0.12960901856422424,0.12960901856422424,0.9915651679039001,505.28143310546875,589.6298828125)" opacity="1" style="display: block;"><g opacity="1" transform="matrix(1,0,0,1,-114.94499969482422,-165.50799560546875)"><path fill="rgb(0,0,0)" fill-opacity="1" d=" M0,-60.59400177001953 C21.260000228881836,-60.59400177001953 38.494998931884766,-33.46500015258789 38.494998931884766,0 C38.494998931884766,33.46500015258789 21.260000228881836,60.59400177001953 0,60.59400177001953 C-21.260000228881836,60.59400177001953 -38.494998931884766,33.46500015258789 -38.494998931884766,0 C-38.494998931884766,-33.46500015258789 -21.260000228881836,-60.59400177001953 0,-60.59400177001953z"></path><path stroke-linecap="butt" stroke-linejoin="miter" fill-opacity="0" stroke-miterlimit="10" stroke="rgb(255,255,255)" stroke-opacity="1" stroke-width="5" d=" M0,-60.59400177001953 C21.260000228881836,-60.59400177001953 38.494998931884766,-33.46500015258789 38.494998931884766,0 C38.494998931884766,33.46500015258789 21.260000228881836,60.59400177001953 0,60.59400177001953 C-21.260000228881836,60.59400177001953 -38.494998931884766,33.46500015258789 -38.494998931884766,0 C-38.494998931884766,-33.46500015258789 -21.260000228881836,-60.59400177001953 0,-60.59400177001953z"></path></g><g opacity="1" transform="matrix(1,0,0,1,0,0)"><path fill="rgb(255,255,255)" fill-opacity="1" d=" M144.7259979248047,-119.68599700927734 C157.11599731445312,-125.78600311279297 166.10699462890625,-143.9949951171875 166.10699462890625,-165.50799560546875 C166.10699462890625,-185.06700134277344 158.67599487304688,-201.89199829101562 148.01499938964844,-209.3719940185547 C146.0749969482422,-210.73300170898438 155.7220001220703,-186.8300018310547 155.03799438476562,-163.36000061035156 C154.38499450683594,-140.97999572753906 143.3209991455078,-118.99400329589844 144.7259979248047,-119.68599700927734z M134.39999389648438,-236.11500549316406 C123.46600341796875,-277.3800048828125 90.38500213623047,-331.9540100097656 -8.340999603271484,-328.9800109863281 C-114.1500015258789,-325.7929992675781 -137.2169952392578,-247.32899475097656 -142.2449951171875,-212.35699462890625 C-155.89599609375,-207.58900451660156 -166.10699462890625,-188.43099975585938 -166.10699462890625,-165.50799560546875 C-166.10699462890625,-138.9980010986328 -152.45399475097656,-117.50599670410156 -135.61199951171875,-117.50599670410156 C-118.7699966430664,-117.50599670410156 -105.11699676513672,-138.9980010986328 -105.11699676513672,-165.50799560546875 C-105.11699676513672,-184.5240020751953 -112.14199829101562,-200.95399475097656 -122.33000183105469,-208.7259979248047 C-111.08599853515625,-245.56100463867188 -74.0530014038086,-327.83099365234375 30.638999938964844,-316.6239929199219 C93.0260009765625,-309.9460144042969 119.7300033569336,-272.6610107421875 131.13299560546875,-240.51600646972656 C131.13299560546875,-240.51600646972656 134.39999389648438,-236.11500549316406 134.39999389648438,-236.11500549316406z"></path></g><g opacity="1" transform="matrix(1,0,0,1,0,0)"><path stroke-linecap="butt" stroke-linejoin="miter" fill-opacity="0" stroke-miterlimit="4" stroke="rgb(0,0,0)" stroke-opacity="1" stroke-width="2" d=" M-145.31300354003906,-210.875 C-145.31300354003906,-210.875 -154.625,-206.81300354003906 -160.0540008544922,-193.5229949951172 C-166.6909942626953,-177.2760009765625 -170.68299865722656,-149.51199340820312 -153.43800354003906,-126.56300354003906 M147.197998046875,-212.28199768066406 C147.197998046875,-212.28199768066406 166.88600158691406,-161.48300170898438 143.9550018310547,-117.96700286865234 M-59.5,-319.5 C-59.5,-319.5 -117,-306.25 -138,-233.75"></path></g></g><g transform="matrix(0,0,0,0,308.35400390625,416.989013671875)" opacity="1" style="display: block;"><g opacity="1" transform="matrix(1,0,0,1,0,0)"><path fill="rgb(255,255,255)" fill-opacity="1" d=" M-208,-159.25 C-208,-159.25 -234.625,-154.5 -234.625,-154.5 C-234.625,-154.5 -231.375,-143 -231.375,-143 C-231.375,-143 -228.875,-148.125 -228.875,-148.125 C-228.875,-148.125 -213.625,-150.5 -213.625,-150.5 C-213.625,-150.5 -215.375,-116.5 -215.375,-116.5 C-215.375,-116.5 -198.5,-109.75 -196,-116 C-193.5,-122.25 -196.5,-128.125 -210.25,-123 C-211.125,-123.25 -208,-159.25 -208,-159.25z"></path></g></g></g></svg>