<svg width="154" height="22" viewBox="0 0 154 22" fill="none" xmlns="http://www.w3.org/2000/svg">
<path d="M27.55 19.44L22.51 0.929999C22.36 0.389999 21.85 -1.43051e-06 21.31 -1.43051e-06H16.33C15.97 -1.43051e-06 15.67 0.209999 15.52 0.539999L14.77 2.19C14.56 2.61 13.96 2.55 13.84 2.1L13.45 0.659999C13.33 0.269999 13 -1.43051e-06 12.58 -1.43051e-06H7.09C6.52 -1.43051e-06 6.04 0.389999 5.89 0.929999L0.85 19.44C0.64 20.22 1.24 21 2.05 21H8.74C9.52 21 10.12 20.28 9.97 19.53L6.97 4.62C6.91 4.32 7.12 4.02 7.42 3.96C7.75 3.9 8.05 4.08 8.11 4.41L11.26 20.01C11.38 20.61 11.89 21 12.49 21H16.87C17.68 21 18.25 20.28 18.1 19.53L15.13 4.62C15.04 4.32 15.25 4.02 15.58 3.96C15.88 3.9 16.18 4.08 16.27 4.41L19.39 20.01C19.51 20.61 20.02 21 20.62 21H26.35C27.16 21 27.76 20.22 27.55 19.44ZM40.1758 -1.43051e-06H32.6458C30.0658 -1.43051e-06 27.9958 2.1 27.9958 4.68V16.35C27.9958 18.93 30.0658 21.03 32.6458 21.03H40.1758C42.7258 21.03 44.8258 18.93 44.8258 16.35V4.68C44.8258 2.1 42.7258 -1.43051e-06 40.1758 -1.43051e-06ZM37.6558 19.71C37.6558 20.07 37.3558 20.34 37.0258 20.34C36.6958 20.34 36.3958 20.07 36.3958 19.71V1.26C36.3958 0.929999 36.6958 0.629999 37.0258 0.629999C37.3558 0.629999 37.6558 0.929999 37.6558 1.26V19.71ZM58.1641 -1.43051e-06H50.6341C48.0541 -1.43051e-06 45.9841 2.1 45.9841 4.68V16.35C45.9841 18.93 48.0541 21.03 50.6341 21.03H58.1641C60.7141 21.03 62.8141 18.93 62.8141 16.35V4.68C62.8141 2.1 60.7141 -1.43051e-06 58.1641 -1.43051e-06ZM55.6441 19.71C55.6441 20.07 55.3441 20.34 55.0141 20.34C54.6841 20.34 54.3841 20.07 54.3841 19.71V1.26C54.3841 0.929999 54.6841 0.629999 55.0141 0.629999C55.3441 0.629999 55.6441 0.929999 55.6441 1.26V19.71ZM76.2423 -1.43051e-06H74.4723C74.7123 2.19 75.5823 3.75 76.6323 5.61C77.1123 6.48 77.6223 7.38 78.1023 8.43C79.6023 11.61 79.6623 14.76 79.6023 16.11C79.6023 16.47 79.2723 16.77 78.9123 16.71C78.5823 16.68 78.3423 16.38 78.3423 16.08C78.4023 14.85 78.3423 11.88 76.9923 8.97C76.5123 7.95 76.0023 7.08 75.5223 6.24C74.4423 4.26 73.4523 2.49 73.2123 -1.43051e-06H68.7123C66.1323 -1.43051e-06 64.0623 2.1 64.0623 4.68V21C64.0623 21 66.1323 21 68.7123 21H70.4523C70.2123 18.84 69.3423 17.28 68.2923 15.42C67.8123 14.55 67.3323 13.65 66.8223 12.6C65.3223 9.42 65.2623 6.27 65.3223 4.92C65.3523 4.56 65.6823 4.26 66.0423 4.32C66.3423 4.35 66.5823 4.65 66.5823 4.95C66.5223 6.18 66.5823 9.15 67.9623 12.06C68.4423 13.08 68.9223 13.95 69.4023 14.79C70.5123 16.77 71.4723 18.54 71.7123 21H76.2423C78.7923 21 80.8923 18.93 80.8923 16.35V-1.43051e-06C80.8923 -1.43051e-06 78.7923 -1.43051e-06 76.2423 -1.43051e-06ZM106.916 -1.43051e-06H100.226C99.4157 -1.43051e-06 98.8457 0.75 98.9957 1.5L101.966 16.38C102.026 16.71 101.846 17.01 101.516 17.07C101.216 17.13 100.886 16.95 100.826 16.62L97.7057 1.02C97.5857 0.419999 97.0757 -1.43051e-06 96.4757 -1.43051e-06H92.0657C91.2857 -1.43051e-06 90.6857 0.75 90.8357 1.5L93.8357 16.38C93.8957 16.71 93.6857 17.01 93.3857 17.07C93.0557 17.13 92.7557 16.95 92.6957 16.62L89.5757 1.02C89.4557 0.419999 88.9457 -1.43051e-06 88.3457 -1.43051e-06H82.6157C81.8057 -1.43051e-06 81.2057 0.809999 81.4157 1.59L86.4557 20.1C86.6057 20.64 87.0857 21 87.6557 21H92.6357C92.9657 21 93.2957 20.82 93.4457 20.49L94.1957 18.84C94.4057 18.42 95.0057 18.48 95.1257 18.93L95.5157 20.37C95.6357 20.76 95.9657 21 96.3557 21H101.876C102.416 21 102.926 20.64 103.076 20.1L108.116 1.59C108.326 0.809999 107.726 -1.43051e-06 106.916 -1.43051e-06ZM114.533 -1.43051e-06H111.173C109.763 -1.43051e-06 108.653 1.14 108.653 2.55V18.48C108.653 19.89 109.763 21 111.173 21H114.533C115.943 21 117.053 19.89 117.053 18.48V2.55C117.053 1.14 115.943 -1.43051e-06 114.533 -1.43051e-06ZM125.007 0.839998C126.657 1.65 131.247 4.14 134.307 7.44C134.607 7.74 135.117 7.56 135.117 7.14V4.68C135.117 2.1 133.017 -1.43051e-06 130.467 -1.43051e-06H122.937C120.357 -1.43051e-06 118.287 2.1 118.287 4.68V9.42C118.287 10.2 118.497 10.92 118.947 11.52C121.677 15.18 127.197 18.18 128.937 19.08C129.237 19.23 129.357 19.62 129.207 19.92C129.057 20.22 128.667 20.37 128.367 20.19C126.747 19.38 122.157 16.89 119.067 13.59C118.797 13.29 118.287 13.47 118.287 13.89V16.35C118.287 18.93 120.357 21 122.937 21H130.467C133.017 21 135.117 18.93 135.117 16.35V11.61C135.117 10.83 134.877 10.11 134.427 9.51C131.697 5.85 126.207 2.85 124.467 1.95C124.167 1.8 124.017 1.41 124.167 1.11C124.317 0.809999 124.707 0.659999 125.007 0.839998ZM150.648 -1.43051e-06H146.808C146.328 -1.43051e-06 145.938 0.389999 145.938 0.87V8.1C145.938 8.43 145.668 8.7 145.338 8.7C145.008 8.7 144.738 8.43 144.738 8.1V0.87C144.738 0.389999 144.348 -1.43051e-06 143.898 -1.43051e-06H138.858C137.448 -1.43051e-06 136.338 1.14 136.338 2.55V18.48C136.338 19.89 137.448 21 138.858 21H143.898C144.348 21 144.738 20.64 144.738 20.16V10.44C144.738 10.11 145.008 9.84 145.338 9.84C145.668 9.84 145.938 10.11 145.938 10.44V20.16C145.938 20.64 146.328 21 146.808 21H150.648C152.028 21 153.168 19.89 153.168 18.48V2.55C153.168 1.14 152.028 -1.43051e-06 150.648 -1.43051e-06Z" fill="url(#paint0_linear_20_59)"/>
<path d="M27.55 19.44L22.51 0.929999C22.36 0.389999 21.85 -1.43051e-06 21.31 -1.43051e-06H16.33C15.97 -1.43051e-06 15.67 0.209999 15.52 0.539999L14.77 2.19C14.56 2.61 13.96 2.55 13.84 2.1L13.45 0.659999C13.33 0.269999 13 -1.43051e-06 12.58 -1.43051e-06H7.09C6.52 -1.43051e-06 6.04 0.389999 5.89 0.929999L0.85 19.44C0.64 20.22 1.24 21 2.05 21H8.74C9.52 21 10.12 20.28 9.97 19.53L6.97 4.62C6.91 4.32 7.12 4.02 7.42 3.96C7.75 3.9 8.05 4.08 8.11 4.41L11.26 20.01C11.38 20.61 11.89 21 12.49 21H16.87C17.68 21 18.25 20.28 18.1 19.53L15.13 4.62C15.04 4.32 15.25 4.02 15.58 3.96C15.88 3.9 16.18 4.08 16.27 4.41L19.39 20.01C19.51 20.61 20.02 21 20.62 21H26.35C27.16 21 27.76 20.22 27.55 19.44ZM40.1758 -1.43051e-06H32.6458C30.0658 -1.43051e-06 27.9958 2.1 27.9958 4.68V16.35C27.9958 18.93 30.0658 21.03 32.6458 21.03H40.1758C42.7258 21.03 44.8258 18.93 44.8258 16.35V4.68C44.8258 2.1 42.7258 -1.43051e-06 40.1758 -1.43051e-06ZM37.6558 19.71C37.6558 20.07 37.3558 20.34 37.0258 20.34C36.6958 20.34 36.3958 20.07 36.3958 19.71V1.26C36.3958 0.929999 36.6958 0.629999 37.0258 0.629999C37.3558 0.629999 37.6558 0.929999 37.6558 1.26V19.71ZM58.1641 -1.43051e-06H50.6341C48.0541 -1.43051e-06 45.9841 2.1 45.9841 4.68V16.35C45.9841 18.93 48.0541 21.03 50.6341 21.03H58.1641C60.7141 21.03 62.8141 18.93 62.8141 16.35V4.68C62.8141 2.1 60.7141 -1.43051e-06 58.1641 -1.43051e-06ZM55.6441 19.71C55.6441 20.07 55.3441 20.34 55.0141 20.34C54.6841 20.34 54.3841 20.07 54.3841 19.71V1.26C54.3841 0.929999 54.6841 0.629999 55.0141 0.629999C55.3441 0.629999 55.6441 0.929999 55.6441 1.26V19.71ZM76.2423 -1.43051e-06H74.4723C74.7123 2.19 75.5823 3.75 76.6323 5.61C77.1123 6.48 77.6223 7.38 78.1023 8.43C79.6023 11.61 79.6623 14.76 79.6023 16.11C79.6023 16.47 79.2723 16.77 78.9123 16.71C78.5823 16.68 78.3423 16.38 78.3423 16.08C78.4023 14.85 78.3423 11.88 76.9923 8.97C76.5123 7.95 76.0023 7.08 75.5223 6.24C74.4423 4.26 73.4523 2.49 73.2123 -1.43051e-06H68.7123C66.1323 -1.43051e-06 64.0623 2.1 64.0623 4.68V21C64.0623 21 66.1323 21 68.7123 21H70.4523C70.2123 18.84 69.3423 17.28 68.2923 15.42C67.8123 14.55 67.3323 13.65 66.8223 12.6C65.3223 9.42 65.2623 6.27 65.3223 4.92C65.3523 4.56 65.6823 4.26 66.0423 4.32C66.3423 4.35 66.5823 4.65 66.5823 4.95C66.5223 6.18 66.5823 9.15 67.9623 12.06C68.4423 13.08 68.9223 13.95 69.4023 14.79C70.5123 16.77 71.4723 18.54 71.7123 21H76.2423C78.7923 21 80.8923 18.93 80.8923 16.35V-1.43051e-06C80.8923 -1.43051e-06 78.7923 -1.43051e-06 76.2423 -1.43051e-06ZM106.916 -1.43051e-06H100.226C99.4157 -1.43051e-06 98.8457 0.75 98.9957 1.5L101.966 16.38C102.026 16.71 101.846 17.01 101.516 17.07C101.216 17.13 100.886 16.95 100.826 16.62L97.7057 1.02C97.5857 0.419999 97.0757 -1.43051e-06 96.4757 -1.43051e-06H92.0657C91.2857 -1.43051e-06 90.6857 0.75 90.8357 1.5L93.8357 16.38C93.8957 16.71 93.6857 17.01 93.3857 17.07C93.0557 17.13 92.7557 16.95 92.6957 16.62L89.5757 1.02C89.4557 0.419999 88.9457 -1.43051e-06 88.3457 -1.43051e-06H82.6157C81.8057 -1.43051e-06 81.2057 0.809999 81.4157 1.59L86.4557 20.1C86.6057 20.64 87.0857 21 87.6557 21H92.6357C92.9657 21 93.2957 20.82 93.4457 20.49L94.1957 18.84C94.4057 18.42 95.0057 18.48 95.1257 18.93L95.5157 20.37C95.6357 20.76 95.9657 21 96.3557 21H101.876C102.416 21 102.926 20.64 103.076 20.1L108.116 1.59C108.326 0.809999 107.726 -1.43051e-06 106.916 -1.43051e-06ZM114.533 -1.43051e-06H111.173C109.763 -1.43051e-06 108.653 1.14 108.653 2.55V18.48C108.653 19.89 109.763 21 111.173 21H114.533C115.943 21 117.053 19.89 117.053 18.48V2.55C117.053 1.14 115.943 -1.43051e-06 114.533 -1.43051e-06ZM125.007 0.839998C126.657 1.65 131.247 4.14 134.307 7.44C134.607 7.74 135.117 7.56 135.117 7.14V4.68C135.117 2.1 133.017 -1.43051e-06 130.467 -1.43051e-06H122.937C120.357 -1.43051e-06 118.287 2.1 118.287 4.68V9.42C118.287 10.2 118.497 10.92 118.947 11.52C121.677 15.18 127.197 18.18 128.937 19.08C129.237 19.23 129.357 19.62 129.207 19.92C129.057 20.22 128.667 20.37 128.367 20.19C126.747 19.38 122.157 16.89 119.067 13.59C118.797 13.29 118.287 13.47 118.287 13.89V16.35C118.287 18.93 120.357 21 122.937 21H130.467C133.017 21 135.117 18.93 135.117 16.35V11.61C135.117 10.83 134.877 10.11 134.427 9.51C131.697 5.85 126.207 2.85 124.467 1.95C124.167 1.8 124.017 1.41 124.167 1.11C124.317 0.809999 124.707 0.659999 125.007 0.839998ZM150.648 -1.43051e-06H146.808C146.328 -1.43051e-06 145.938 0.389999 145.938 0.87V8.1C145.938 8.43 145.668 8.7 145.338 8.7C145.008 8.7 144.738 8.43 144.738 8.1V0.87C144.738 0.389999 144.348 -1.43051e-06 143.898 -1.43051e-06H138.858C137.448 -1.43051e-06 136.338 1.14 136.338 2.55V18.48C136.338 19.89 137.448 21 138.858 21H143.898C144.348 21 144.738 20.64 144.738 20.16V10.44C144.738 10.11 145.008 9.84 145.338 9.84C145.668 9.84 145.938 10.11 145.938 10.44V20.16C145.938 20.64 146.328 21 146.808 21H150.648C152.028 21 153.168 19.89 153.168 18.48V2.55C153.168 1.14 152.028 -1.43051e-06 150.648 -1.43051e-06Z" fill="black" fill-opacity="0.2"/>
<defs>
<linearGradient id="paint0_linear_20_59" x1="172.5" y1="14" x2="-28.5" y2="14" gradientUnits="userSpaceOnUse">
<stop stop-color="#C1C1C1"/>
<stop offset="1" stop-color="white" stop-opacity="0.9"/>
</linearGradient>
</defs>
</svg>
