<svg width="164" height="24" viewBox="0 0 164 24" fill="none" xmlns="http://www.w3.org/2000/svg">
<path d="M29.32 21.336L23.944 1.592C23.784 1.016 23.24 0.599998 22.664 0.599998H17.352C16.968 0.599998 16.648 0.823999 16.488 1.176L15.688 2.936C15.464 3.384 14.824 3.32 14.696 2.84L14.28 1.304C14.152 0.887999 13.8 0.599998 13.352 0.599998H7.496C6.888 0.599998 6.376 1.016 6.216 1.592L0.84 21.336C0.616 22.168 1.256 23 2.12 23H9.256C10.088 23 10.728 22.232 10.568 21.432L7.368 5.528C7.304 5.208 7.528 4.888 7.848 4.824C8.2 4.76 8.52 4.952 8.584 5.304L11.944 21.944C12.072 22.584 12.616 23 13.256 23H17.928C18.792 23 19.4 22.232 19.24 21.432L16.072 5.528C15.976 5.208 16.2 4.888 16.552 4.824C16.872 4.76 17.192 4.952 17.288 5.304L20.616 21.944C20.744 22.584 21.288 23 21.928 23H28.04C28.904 23 29.544 22.168 29.32 21.336ZM42.7875 0.599998H34.7555C32.0035 0.599998 29.7955 2.84 29.7955 5.592V18.04C29.7955 20.792 32.0035 23.032 34.7555 23.032H42.7875C45.5075 23.032 47.7475 20.792 47.7475 18.04V5.592C47.7475 2.84 45.5075 0.599998 42.7875 0.599998ZM40.0995 21.624C40.0995 22.008 39.7795 22.296 39.4275 22.296C39.0755 22.296 38.7555 22.008 38.7555 21.624V1.944C38.7555 1.592 39.0755 1.272 39.4275 1.272C39.7795 1.272 40.0995 1.592 40.0995 1.944V21.624ZM61.975 0.599998H53.943C51.191 0.599998 48.983 2.84 48.983 5.592V18.04C48.983 20.792 51.191 23.032 53.943 23.032H61.975C64.695 23.032 66.935 20.792 66.935 18.04V5.592C66.935 2.84 64.695 0.599998 61.975 0.599998ZM59.287 21.624C59.287 22.008 58.967 22.296 58.615 22.296C58.263 22.296 57.943 22.008 57.943 21.624V1.944C57.943 1.592 58.263 1.272 58.615 1.272C58.967 1.272 59.287 1.592 59.287 1.944V21.624ZM81.2585 0.599998H79.3705C79.6265 2.936 80.5545 4.6 81.6745 6.584C82.1865 7.512 82.7305 8.472 83.2425 9.592C84.8425 12.984 84.9065 16.344 84.8425 17.784C84.8425 18.168 84.4905 18.488 84.1065 18.424C83.7545 18.392 83.4985 18.072 83.4985 17.752C83.5625 16.44 83.4985 13.272 82.0585 10.168C81.5465 9.08 81.0025 8.152 80.4905 7.256C79.3385 5.144 78.2825 3.256 78.0265 0.599998H73.2265C70.4745 0.599998 68.2665 2.84 68.2665 5.592V23C68.2665 23 70.4745 23 73.2265 23H75.0825C74.8265 20.696 73.8985 19.032 72.7785 17.048C72.2665 16.12 71.7545 15.16 71.2105 14.04C69.6105 10.648 69.5465 7.288 69.6105 5.848C69.6425 5.464 69.9945 5.144 70.3785 5.208C70.6985 5.24 70.9545 5.56 70.9545 5.88C70.8905 7.192 70.9545 10.36 72.4265 13.464C72.9385 14.552 73.4505 15.48 73.9625 16.376C75.1465 18.488 76.1705 20.376 76.4265 23H81.2585C83.9785 23 86.2185 20.792 86.2185 18.04V0.599998C86.2185 0.599998 83.9785 0.599998 81.2585 0.599998ZM113.977 0.599998H106.841C105.977 0.599998 105.369 1.4 105.529 2.2L108.697 18.072C108.761 18.424 108.569 18.744 108.217 18.808C107.897 18.872 107.545 18.68 107.481 18.328L104.153 1.688C104.025 1.048 103.481 0.599998 102.841 0.599998H98.1368C97.3048 0.599998 96.6648 1.4 96.8248 2.2L100.025 18.072C100.089 18.424 99.8648 18.744 99.5448 18.808C99.1928 18.872 98.8728 18.68 98.8088 18.328L95.4808 1.688C95.3528 1.048 94.8088 0.599998 94.1688 0.599998H88.0568C87.1928 0.599998 86.5527 1.464 86.7767 2.296L92.1528 22.04C92.3128 22.616 92.8248 23 93.4328 23H98.7448C99.0968 23 99.4488 22.808 99.6088 22.456L100.409 20.696C100.633 20.248 101.273 20.312 101.401 20.792L101.817 22.328C101.945 22.744 102.297 23 102.713 23H108.601C109.177 23 109.721 22.616 109.881 22.04L115.257 2.296C115.481 1.464 114.841 0.599998 113.977 0.599998ZM122.102 0.599998H118.518C117.014 0.599998 115.83 1.816 115.83 3.32V20.312C115.83 21.816 117.014 23 118.518 23H122.102C123.606 23 124.79 21.816 124.79 20.312V3.32C124.79 1.816 123.606 0.599998 122.102 0.599998ZM133.275 1.496C135.035 2.36 139.931 5.016 143.194 8.536C143.515 8.856 144.059 8.664 144.059 8.216V5.592C144.059 2.84 141.819 0.599998 139.099 0.599998H131.067C128.315 0.599998 126.107 2.84 126.107 5.592V10.648C126.107 11.48 126.331 12.248 126.811 12.888C129.723 16.792 135.611 19.992 137.467 20.952C137.787 21.112 137.915 21.528 137.755 21.848C137.595 22.168 137.179 22.328 136.859 22.136C135.131 21.272 130.235 18.616 126.939 15.096C126.651 14.776 126.107 14.968 126.107 15.416V18.04C126.107 20.792 128.315 23 131.067 23H139.099C141.819 23 144.059 20.792 144.059 18.04V12.984C144.059 12.152 143.803 11.384 143.323 10.744C140.411 6.84 134.555 3.64 132.699 2.68C132.379 2.52 132.219 2.104 132.379 1.784C132.539 1.464 132.955 1.304 133.275 1.496ZM160.625 0.599998H156.529C156.017 0.599998 155.601 1.016 155.601 1.528V9.24C155.601 9.592 155.313 9.88 154.961 9.88C154.609 9.88 154.321 9.592 154.321 9.24V1.528C154.321 1.016 153.905 0.599998 153.425 0.599998H148.049C146.545 0.599998 145.361 1.816 145.361 3.32V20.312C145.361 21.816 146.545 23 148.049 23H153.425C153.905 23 154.321 22.616 154.321 22.104V11.736C154.321 11.384 154.609 11.096 154.961 11.096C155.313 11.096 155.601 11.384 155.601 11.736V22.104C155.601 22.616 156.017 23 156.529 23H160.625C162.097 23 163.313 21.816 163.313 20.312V3.32C163.313 1.816 162.097 0.599998 160.625 0.599998Z" fill="url(#paint0_linear_59_8)"/>
<path d="M29.32 21.336L23.944 1.592C23.784 1.016 23.24 0.599998 22.664 0.599998H17.352C16.968 0.599998 16.648 0.823999 16.488 1.176L15.688 2.936C15.464 3.384 14.824 3.32 14.696 2.84L14.28 1.304C14.152 0.887999 13.8 0.599998 13.352 0.599998H7.496C6.888 0.599998 6.376 1.016 6.216 1.592L0.84 21.336C0.616 22.168 1.256 23 2.12 23H9.256C10.088 23 10.728 22.232 10.568 21.432L7.368 5.528C7.304 5.208 7.528 4.888 7.848 4.824C8.2 4.76 8.52 4.952 8.584 5.304L11.944 21.944C12.072 22.584 12.616 23 13.256 23H17.928C18.792 23 19.4 22.232 19.24 21.432L16.072 5.528C15.976 5.208 16.2 4.888 16.552 4.824C16.872 4.76 17.192 4.952 17.288 5.304L20.616 21.944C20.744 22.584 21.288 23 21.928 23H28.04C28.904 23 29.544 22.168 29.32 21.336ZM42.7875 0.599998H34.7555C32.0035 0.599998 29.7955 2.84 29.7955 5.592V18.04C29.7955 20.792 32.0035 23.032 34.7555 23.032H42.7875C45.5075 23.032 47.7475 20.792 47.7475 18.04V5.592C47.7475 2.84 45.5075 0.599998 42.7875 0.599998ZM40.0995 21.624C40.0995 22.008 39.7795 22.296 39.4275 22.296C39.0755 22.296 38.7555 22.008 38.7555 21.624V1.944C38.7555 1.592 39.0755 1.272 39.4275 1.272C39.7795 1.272 40.0995 1.592 40.0995 1.944V21.624ZM61.975 0.599998H53.943C51.191 0.599998 48.983 2.84 48.983 5.592V18.04C48.983 20.792 51.191 23.032 53.943 23.032H61.975C64.695 23.032 66.935 20.792 66.935 18.04V5.592C66.935 2.84 64.695 0.599998 61.975 0.599998ZM59.287 21.624C59.287 22.008 58.967 22.296 58.615 22.296C58.263 22.296 57.943 22.008 57.943 21.624V1.944C57.943 1.592 58.263 1.272 58.615 1.272C58.967 1.272 59.287 1.592 59.287 1.944V21.624ZM81.2585 0.599998H79.3705C79.6265 2.936 80.5545 4.6 81.6745 6.584C82.1865 7.512 82.7305 8.472 83.2425 9.592C84.8425 12.984 84.9065 16.344 84.8425 17.784C84.8425 18.168 84.4905 18.488 84.1065 18.424C83.7545 18.392 83.4985 18.072 83.4985 17.752C83.5625 16.44 83.4985 13.272 82.0585 10.168C81.5465 9.08 81.0025 8.152 80.4905 7.256C79.3385 5.144 78.2825 3.256 78.0265 0.599998H73.2265C70.4745 0.599998 68.2665 2.84 68.2665 5.592V23C68.2665 23 70.4745 23 73.2265 23H75.0825C74.8265 20.696 73.8985 19.032 72.7785 17.048C72.2665 16.12 71.7545 15.16 71.2105 14.04C69.6105 10.648 69.5465 7.288 69.6105 5.848C69.6425 5.464 69.9945 5.144 70.3785 5.208C70.6985 5.24 70.9545 5.56 70.9545 5.88C70.8905 7.192 70.9545 10.36 72.4265 13.464C72.9385 14.552 73.4505 15.48 73.9625 16.376C75.1465 18.488 76.1705 20.376 76.4265 23H81.2585C83.9785 23 86.2185 20.792 86.2185 18.04V0.599998C86.2185 0.599998 83.9785 0.599998 81.2585 0.599998ZM113.977 0.599998H106.841C105.977 0.599998 105.369 1.4 105.529 2.2L108.697 18.072C108.761 18.424 108.569 18.744 108.217 18.808C107.897 18.872 107.545 18.68 107.481 18.328L104.153 1.688C104.025 1.048 103.481 0.599998 102.841 0.599998H98.1368C97.3048 0.599998 96.6648 1.4 96.8248 2.2L100.025 18.072C100.089 18.424 99.8648 18.744 99.5448 18.808C99.1928 18.872 98.8728 18.68 98.8088 18.328L95.4808 1.688C95.3528 1.048 94.8088 0.599998 94.1688 0.599998H88.0568C87.1928 0.599998 86.5527 1.464 86.7767 2.296L92.1528 22.04C92.3128 22.616 92.8248 23 93.4328 23H98.7448C99.0968 23 99.4488 22.808 99.6088 22.456L100.409 20.696C100.633 20.248 101.273 20.312 101.401 20.792L101.817 22.328C101.945 22.744 102.297 23 102.713 23H108.601C109.177 23 109.721 22.616 109.881 22.04L115.257 2.296C115.481 1.464 114.841 0.599998 113.977 0.599998ZM122.102 0.599998H118.518C117.014 0.599998 115.83 1.816 115.83 3.32V20.312C115.83 21.816 117.014 23 118.518 23H122.102C123.606 23 124.79 21.816 124.79 20.312V3.32C124.79 1.816 123.606 0.599998 122.102 0.599998ZM133.275 1.496C135.035 2.36 139.931 5.016 143.194 8.536C143.515 8.856 144.059 8.664 144.059 8.216V5.592C144.059 2.84 141.819 0.599998 139.099 0.599998H131.067C128.315 0.599998 126.107 2.84 126.107 5.592V10.648C126.107 11.48 126.331 12.248 126.811 12.888C129.723 16.792 135.611 19.992 137.467 20.952C137.787 21.112 137.915 21.528 137.755 21.848C137.595 22.168 137.179 22.328 136.859 22.136C135.131 21.272 130.235 18.616 126.939 15.096C126.651 14.776 126.107 14.968 126.107 15.416V18.04C126.107 20.792 128.315 23 131.067 23H139.099C141.819 23 144.059 20.792 144.059 18.04V12.984C144.059 12.152 143.803 11.384 143.323 10.744C140.411 6.84 134.555 3.64 132.699 2.68C132.379 2.52 132.219 2.104 132.379 1.784C132.539 1.464 132.955 1.304 133.275 1.496ZM160.625 0.599998H156.529C156.017 0.599998 155.601 1.016 155.601 1.528V9.24C155.601 9.592 155.313 9.88 154.961 9.88C154.609 9.88 154.321 9.592 154.321 9.24V1.528C154.321 1.016 153.905 0.599998 153.425 0.599998H148.049C146.545 0.599998 145.361 1.816 145.361 3.32V20.312C145.361 21.816 146.545 23 148.049 23H153.425C153.905 23 154.321 22.616 154.321 22.104V11.736C154.321 11.384 154.609 11.096 154.961 11.096C155.313 11.096 155.601 11.384 155.601 11.736V22.104C155.601 22.616 156.017 23 156.529 23H160.625C162.097 23 163.313 21.816 163.313 20.312V3.32C163.313 1.816 162.097 0.599998 160.625 0.599998Z" fill="black" fill-opacity="0.2"/>
<defs>
<linearGradient id="paint0_linear_59_8" x1="184.83" y1="14.9655" x2="-30.6209" y2="14.9655" gradientUnits="userSpaceOnUse">
<stop stop-color="white"/>
<stop offset="1" stop-color="#B7AED9" stop-opacity="0.9"/>
</linearGradient>
</defs>
</svg>
