<svg width="30" height="34" viewBox="0 0 30 34" fill="none" xmlns="http://www.w3.org/2000/svg">
<path d="M21.7014 4.063V29.563C21.7014 32.402 23.6806 34 25.8507 34C27.8299 34 30 32.657 30 29.563V4.25C30 1.632 28.0208 0 25.8507 0C23.6806 0 21.7014 1.802 21.7014 4.063ZM10.8507 17V29.563C10.8507 32.419 12.8646 34 15 34C16.9792 34 19.1493 32.657 19.1493 29.563V17.187C19.1493 14.569 17.1701 12.937 15 12.937C12.8299 12.937 10.8507 14.739 10.8507 17ZM4.14931 25.891C6.44097 25.891 8.29861 27.71 8.29861 29.937C8.29861 31.0146 7.86145 32.048 7.08331 32.81C6.30516 33.5719 5.24977 34 4.14931 34C3.04884 34 1.99345 33.5719 1.2153 32.81C0.437158 32.048 0 31.0146 0 29.937C0 27.71 1.85764 25.891 4.14931 25.891Z" fill="url(#paint0_linear_92_2623)"/>
<defs>
<linearGradient id="paint0_linear_92_2623" x1="-2.57975" y1="25.1304" x2="32.6076" y2="25.1585" gradientUnits="userSpaceOnUse">
<stop stop-color="#6F2CFF"/>
<stop offset="0.447917" stop-color="#974AFA"/>
<stop offset="1" stop-color="#4B70F3"/>
</linearGradient>
</defs>
</svg>
