<svg width="30" height="34" viewBox="0 0 30 34" fill="none" xmlns="http://www.w3.org/2000/svg">
<path d="M15 20.4C14.5278 20.4 14.1322 20.2368 13.8133 19.9104C13.4933 19.5851 13.3333 19.1817 13.3333 18.7C13.3333 18.2183 13.4933 17.8143 13.8133 17.4879C14.1322 17.1626 14.5278 17 15 17C15.4722 17 15.8683 17.1626 16.1883 17.4879C16.5072 17.8143 16.6667 18.2183 16.6667 18.7C16.6667 19.1817 16.5072 19.5851 16.1883 19.9104C15.8683 20.2368 15.4722 20.4 15 20.4ZM8.33333 20.4C7.86111 20.4 7.465 20.2368 7.145 19.9104C6.82611 19.5851 6.66667 19.1817 6.66667 18.7C6.66667 18.2183 6.82611 17.8143 7.145 17.4879C7.465 17.1626 7.86111 17 8.33333 17C8.80556 17 9.20167 17.1626 9.52167 17.4879C9.84056 17.8143 10 18.2183 10 18.7C10 19.1817 9.84056 19.5851 9.52167 19.9104C9.20167 20.2368 8.80556 20.4 8.33333 20.4ZM21.6667 20.4C21.1944 20.4 20.7989 20.2368 20.48 19.9104C20.16 19.5851 20 19.1817 20 18.7C20 18.2183 20.16 17.8143 20.48 17.4879C20.7989 17.1626 21.1944 17 21.6667 17C22.1389 17 22.5344 17.1626 22.8533 17.4879C23.1733 17.8143 23.3333 18.2183 23.3333 18.7C23.3333 19.1817 23.1733 19.5851 22.8533 19.9104C22.5344 20.2368 22.1389 20.4 21.6667 20.4ZM15 27.2C14.5278 27.2 14.1322 27.0368 13.8133 26.7104C13.4933 26.3851 13.3333 25.9817 13.3333 25.5C13.3333 25.0183 13.4933 24.6149 13.8133 24.2896C14.1322 23.9632 14.5278 23.8 15 23.8C15.4722 23.8 15.8683 23.9632 16.1883 24.2896C16.5072 24.6149 16.6667 25.0183 16.6667 25.5C16.6667 25.9817 16.5072 26.3851 16.1883 26.7104C15.8683 27.0368 15.4722 27.2 15 27.2ZM8.33333 27.2C7.86111 27.2 7.465 27.0368 7.145 26.7104C6.82611 26.3851 6.66667 25.9817 6.66667 25.5C6.66667 25.0183 6.82611 24.6149 7.145 24.2896C7.465 23.9632 7.86111 23.8 8.33333 23.8C8.80556 23.8 9.20167 23.9632 9.52167 24.2896C9.84056 24.6149 10 25.0183 10 25.5C10 25.9817 9.84056 26.3851 9.52167 26.7104C9.20167 27.0368 8.80556 27.2 8.33333 27.2ZM21.6667 27.2C21.1944 27.2 20.7989 27.0368 20.48 26.7104C20.16 26.3851 20 25.9817 20 25.5C20 25.0183 20.16 24.6149 20.48 24.2896C20.7989 23.9632 21.1944 23.8 21.6667 23.8C22.1389 23.8 22.5344 23.9632 22.8533 24.2896C23.1733 24.6149 23.3333 25.0183 23.3333 25.5C23.3333 25.9817 23.1733 26.3851 22.8533 26.7104C22.5344 27.0368 22.1389 27.2 21.6667 27.2ZM3.33333 34C2.41667 34 1.63167 33.6674 0.978333 33.0021C0.326111 32.3357 0 31.535 0 30.6V6.8C0 5.865 0.326111 5.06487 0.978333 4.3996C1.63167 3.7332 2.41667 3.4 3.33333 3.4H5V1.7C5 1.21833 5.15944 0.8143 5.47833 0.4879C5.79833 0.162633 6.19444 0 6.66667 0C7.13889 0 7.535 0.162633 7.855 0.4879C8.17389 0.8143 8.33333 1.21833 8.33333 1.7V3.4H21.6667V1.7C21.6667 1.21833 21.8267 0.8143 22.1467 0.4879C22.4656 0.162633 22.8611 0 23.3333 0C23.8056 0 24.2011 0.162633 24.52 0.4879C24.84 0.8143 25 1.21833 25 1.7V3.4H26.6667C27.5833 3.4 28.3683 3.7332 29.0217 4.3996C29.6739 5.06487 30 5.865 30 6.8V30.6C30 31.535 29.6739 32.3357 29.0217 33.0021C28.3683 33.6674 27.5833 34 26.6667 34H3.33333ZM3.33333 30.6H26.6667V13.6H3.33333V30.6Z" fill="url(#paint0_linear_307_232)"/>
<defs>
<linearGradient id="paint0_linear_307_232" x1="-2.57975" y1="25.1304" x2="32.6076" y2="25.1585" gradientUnits="userSpaceOnUse">
<stop stop-color="#6F2CFF"/>
<stop offset="0.447917" stop-color="#974AFA"/>
<stop offset="1" stop-color="#4B70F3"/>
</linearGradient>
</defs>
</svg>
