<svg width="38" height="34" viewBox="0 0 38 34" fill="none" xmlns="http://www.w3.org/2000/svg">
<path d="M3.45455 34C2.50455 34 1.69158 33.6674 1.01564 33.0021C0.338546 32.3357 0 31.535 0 30.6V10.2C0 9.265 0.338546 8.46487 1.01564 7.7996C1.69158 7.1332 2.50455 6.8 3.45455 6.8H8.89545L12.0909 3.4H22.4545V10.2H27.6364V15.3H34.5455V30.6C34.5455 31.535 34.2075 32.3357 33.5315 33.0021C32.8545 33.6674 32.0409 34 31.0909 34H3.45455ZM17.2727 28.05C19.4318 28.05 21.2673 27.3065 22.7793 25.8196C24.2901 24.3315 25.0455 22.525 25.0455 20.4C25.0455 18.275 24.2901 16.4685 22.7793 14.9804C21.2673 13.4935 19.4318 12.75 17.2727 12.75C15.1136 12.75 13.2781 13.4935 11.7662 14.9804C10.2554 16.4685 9.5 18.275 9.5 20.4C9.5 22.525 10.2554 24.3315 11.7662 25.8196C13.2781 27.3065 15.1136 28.05 17.2727 28.05ZM17.2727 24.65C16.0636 24.65 15.0417 24.2392 14.2068 23.4175C13.372 22.5958 12.9545 21.59 12.9545 20.4C12.9545 19.21 13.372 18.2042 14.2068 17.3825C15.0417 16.5608 16.0636 16.15 17.2727 16.15C18.4818 16.15 19.5038 16.5608 20.3386 17.3825C21.1735 18.2042 21.5909 19.21 21.5909 20.4C21.5909 21.59 21.1735 22.5958 20.3386 23.4175C19.5038 24.2392 18.4818 24.65 17.2727 24.65ZM31.0909 10.2V6.8H27.6364V3.4H31.0909V0H34.5455V3.4H38V6.8H34.5455V10.2H31.0909Z" fill="url(#paint0_linear_92_2672)"/>
<defs>
<linearGradient id="paint0_linear_92_2672" x1="-3.26768" y1="25.1304" x2="41.303" y2="25.1755" gradientUnits="userSpaceOnUse">
<stop stop-color="#6F2CFF"/>
<stop offset="0.447917" stop-color="#974AFA"/>
<stop offset="1" stop-color="#4B70F3"/>
</linearGradient>
</defs>
</svg>
