<svg width="46" height="30" viewBox="0 0 46 30" fill="none" xmlns="http://www.w3.org/2000/svg">
<path d="M38.3333 26.25C40.4417 26.25 42.1667 24.5625 42.1667 22.5V3.75C42.1667 1.6875 40.4417 0 38.3333 0H7.66667C5.55833 0 3.83333 1.6875 3.83333 3.75V22.5C3.83333 24.5625 5.55833 26.25 7.66667 26.25H1.91667C0.8625 26.25 0 27.0938 0 28.125C0 29.1562 0.8625 30 1.91667 30H44.0833C45.1375 30 46 29.1562 46 28.125C46 27.0938 45.1375 26.25 44.0833 26.25H38.3333ZM9.58333 3.75H36.4167C37.4708 3.75 38.3333 4.59375 38.3333 5.625V20.625C38.3333 21.6562 37.4708 22.5 36.4167 22.5H9.58333C8.52917 22.5 7.66667 21.6562 7.66667 20.625V5.625C7.66667 4.59375 8.52917 3.75 9.58333 3.75Z" fill="url(#paint0_linear_92_2600)"/>
<defs>
<linearGradient id="paint0_linear_92_2600" x1="-3.95562" y1="22.1738" x2="49.9983" y2="22.2488" gradientUnits="userSpaceOnUse">
<stop stop-color="#6F2CFF"/>
<stop offset="0.447917" stop-color="#974AFA"/>
<stop offset="1" stop-color="#4B70F3"/>
</linearGradient>
</defs>
</svg>
