<svg width="30" height="34" viewBox="0 0 30 34" fill="none" xmlns="http://www.w3.org/2000/svg">
<path d="M28.2323 27.098C28.3002 26.5961 28.3002 26.087 28.2323 25.585L29.8489 24.344C29.9227 24.2893 29.9739 24.2084 29.9924 24.1172C30.0109 24.0261 29.9954 23.9311 29.9489 23.851L28.4156 21.199C28.3323 21.029 28.099 20.961 27.9323 21.029L26.0157 21.794C25.6157 21.505 25.1991 21.25 24.7158 21.046L24.4324 19.023C24.4151 18.9322 24.3674 18.8504 24.2975 18.7915C24.2276 18.7326 24.1398 18.7003 24.0491 18.7H20.9659C20.7659 18.7 20.5992 18.836 20.5659 19.023L20.2826 21.046C19.7993 21.25 19.3826 21.505 18.9826 21.794L17.066 21.029C16.8994 20.961 16.6661 21.029 16.5994 21.199L15.0494 23.851C14.9494 24.021 14.9994 24.225 15.1494 24.344L16.766 25.585C16.7494 25.84 16.716 26.095 16.716 26.35C16.716 26.605 16.7494 26.843 16.766 27.098L15.1494 28.356C15.0756 28.4107 15.0244 28.4916 15.0059 28.5828C14.9875 28.6739 15.003 28.7689 15.0494 28.849L16.5994 31.501C16.6661 31.671 16.8994 31.722 17.066 31.671L18.9826 30.889C19.3826 31.195 19.7993 31.45 20.2826 31.654L20.5659 33.677C20.5992 33.864 20.7659 34 20.9659 34H24.0491C24.2324 34 24.3991 33.864 24.4324 33.677L24.7158 31.654C25.1991 31.45 25.6157 31.195 26.0157 30.889L27.9323 31.671C28.099 31.722 28.3323 31.671 28.4156 31.501L29.9489 28.849C29.9954 28.7689 30.0109 28.6739 29.9924 28.5828C29.9739 28.4916 29.9227 28.4107 29.8489 28.356L28.2323 27.098ZM22.4992 28.9C21.1159 28.9 19.9993 27.761 19.9993 26.35C19.9993 24.939 21.1159 23.8 22.4992 23.8C23.8825 23.8 24.9991 24.939 24.9991 26.35C24.9991 27.761 23.8825 28.9 22.4992 28.9ZM9.99963 0C12.9995 1.02 14.9994 3.91 14.9994 7.14C14.9994 10.54 12.9995 13.43 9.99963 14.45V33.15C9.99963 33.66 9.66631 34 9.16633 34H5.83312C5.33314 34 4.99982 33.66 4.99982 32.98V14.28C1.99993 13.26 0 10.37 0 7.14C0 3.91 1.99993 1.02 4.99982 0V6.29H9.99963V0Z" fill="url(#paint0_linear_92_2633)"/>
<defs>
<linearGradient id="paint0_linear_92_2633" x1="-2.57975" y1="25.1304" x2="32.6076" y2="25.1585" gradientUnits="userSpaceOnUse">
<stop stop-color="#6F2CFF"/>
<stop offset="0.447917" stop-color="#974AFA"/>
<stop offset="1" stop-color="#4B70F3"/>
</linearGradient>
</defs>
</svg>
