<svg width="160" height="160" viewBox="0 0 160 160" fill="none" xmlns="http://www.w3.org/2000/svg">
<rect width="160" height="160" rx="80" fill="black"/>
<path d="M122.87 101.008L106.742 41.776C106.262 40.048 104.63 38.8 102.902 38.8H86.9662C85.8142 38.8 84.8542 39.472 84.3742 40.528L81.9742 45.808C81.3022 47.152 79.3822 46.96 78.9982 45.52L77.7502 40.912C77.3662 39.664 76.3102 38.8 74.9662 38.8H57.3982C55.5742 38.8 54.0382 40.048 53.5582 41.776L37.4302 101.008C36.7582 103.504 38.6782 106 41.2702 106H62.6782C65.1742 106 67.0942 103.696 66.6142 101.296L57.0142 53.584C56.8222 52.624 57.4942 51.664 58.4542 51.472C59.5102 51.28 60.4702 51.856 60.6622 52.912L70.7422 102.832C71.1262 104.752 72.7582 106 74.6782 106H88.6942C91.2862 106 93.1102 103.696 92.6302 101.296L83.1262 53.584C82.8382 52.624 83.5102 51.664 84.5662 51.472C85.5262 51.28 86.4862 51.856 86.7742 52.912L96.7582 102.832C97.1422 104.752 98.7742 106 100.694 106H119.03C121.622 106 123.542 103.504 122.87 101.008Z" fill="#D9D9D9"/>
</svg>
