<svg width="154" height="47" viewBox="0 0 154 47" fill="none" xmlns="http://www.w3.org/2000/svg">
<path d="M27.55 19.44L22.51 0.929999C22.36 0.389999 21.85 -1.43051e-06 21.31 -1.43051e-06H16.33C15.97 -1.43051e-06 15.67 0.209999 15.52 0.539999L14.77 2.19C14.56 2.61 13.96 2.55 13.84 2.1L13.45 0.659999C13.33 0.269999 13 -1.43051e-06 12.58 -1.43051e-06H7.09C6.52 -1.43051e-06 6.04 0.389999 5.89 0.929999L0.85 19.44C0.64 20.22 1.24 21 2.05 21H8.74C9.52 21 10.12 20.28 9.97 19.53L6.97 4.62C6.91 4.32 7.12 4.02 7.42 3.96C7.75 3.9 8.05 4.08 8.11 4.41L11.26 20.01C11.38 20.61 11.89 21 12.49 21H16.87C17.68 21 18.25 20.28 18.1 19.53L15.13 4.62C15.04 4.32 15.25 4.02 15.58 3.96C15.88 3.9 16.18 4.08 16.27 4.41L19.39 20.01C19.51 20.61 20.02 21 20.62 21H26.35C27.16 21 27.76 20.22 27.55 19.44ZM40.1758 -1.43051e-06H32.6458C30.0658 -1.43051e-06 27.9958 2.1 27.9958 4.68V16.35C27.9958 18.93 30.0658 21.03 32.6458 21.03H40.1758C42.7258 21.03 44.8258 18.93 44.8258 16.35V4.68C44.8258 2.1 42.7258 -1.43051e-06 40.1758 -1.43051e-06ZM37.6558 19.71C37.6558 20.07 37.3558 20.34 37.0258 20.34C36.6958 20.34 36.3958 20.07 36.3958 19.71V1.26C36.3958 0.929999 36.6958 0.629999 37.0258 0.629999C37.3558 0.629999 37.6558 0.929999 37.6558 1.26V19.71ZM58.1641 -1.43051e-06H50.6341C48.0541 -1.43051e-06 45.9841 2.1 45.9841 4.68V16.35C45.9841 18.93 48.0541 21.03 50.6341 21.03H58.1641C60.7141 21.03 62.8141 18.93 62.8141 16.35V4.68C62.8141 2.1 60.7141 -1.43051e-06 58.1641 -1.43051e-06ZM55.6441 19.71C55.6441 20.07 55.3441 20.34 55.0141 20.34C54.6841 20.34 54.3841 20.07 54.3841 19.71V1.26C54.3841 0.929999 54.6841 0.629999 55.0141 0.629999C55.3441 0.629999 55.6441 0.929999 55.6441 1.26V19.71ZM76.2423 -1.43051e-06H74.4723C74.7123 2.19 75.5823 3.75 76.6323 5.61C77.1123 6.48 77.6223 7.38 78.1023 8.43C79.6023 11.61 79.6623 14.76 79.6023 16.11C79.6023 16.47 79.2723 16.77 78.9123 16.71C78.5823 16.68 78.3423 16.38 78.3423 16.08C78.4023 14.85 78.3423 11.88 76.9923 8.97C76.5123 7.95 76.0023 7.08 75.5223 6.24C74.4423 4.26 73.4523 2.49 73.2123 -1.43051e-06H68.7123C66.1323 -1.43051e-06 64.0623 2.1 64.0623 4.68V21C64.0623 21 66.1323 21 68.7123 21H70.4523C70.2123 18.84 69.3423 17.28 68.2923 15.42C67.8123 14.55 67.3323 13.65 66.8223 12.6C65.3223 9.42 65.2623 6.27 65.3223 4.92C65.3523 4.56 65.6823 4.26 66.0423 4.32C66.3423 4.35 66.5823 4.65 66.5823 4.95C66.5223 6.18 66.5823 9.15 67.9623 12.06C68.4423 13.08 68.9223 13.95 69.4023 14.79C70.5123 16.77 71.4723 18.54 71.7123 21H76.2423C78.7923 21 80.8923 18.93 80.8923 16.35V-1.43051e-06C80.8923 -1.43051e-06 78.7923 -1.43051e-06 76.2423 -1.43051e-06ZM106.916 -1.43051e-06H100.226C99.4157 -1.43051e-06 98.8457 0.75 98.9957 1.5L101.966 16.38C102.026 16.71 101.846 17.01 101.516 17.07C101.216 17.13 100.886 16.95 100.826 16.62L97.7057 1.02C97.5857 0.419999 97.0757 -1.43051e-06 96.4757 -1.43051e-06H92.0657C91.2857 -1.43051e-06 90.6857 0.75 90.8357 1.5L93.8357 16.38C93.8957 16.71 93.6857 17.01 93.3857 17.07C93.0557 17.13 92.7557 16.95 92.6957 16.62L89.5757 1.02C89.4557 0.419999 88.9457 -1.43051e-06 88.3457 -1.43051e-06H82.6157C81.8057 -1.43051e-06 81.2057 0.809999 81.4157 1.59L86.4557 20.1C86.6057 20.64 87.0857 21 87.6557 21H92.6357C92.9657 21 93.2957 20.82 93.4457 20.49L94.1957 18.84C94.4057 18.42 95.0057 18.48 95.1257 18.93L95.5157 20.37C95.6357 20.76 95.9657 21 96.3557 21H101.876C102.416 21 102.926 20.64 103.076 20.1L108.116 1.59C108.326 0.809999 107.726 -1.43051e-06 106.916 -1.43051e-06ZM114.533 -1.43051e-06H111.173C109.763 -1.43051e-06 108.653 1.14 108.653 2.55V18.48C108.653 19.89 109.763 21 111.173 21H114.533C115.943 21 117.053 19.89 117.053 18.48V2.55C117.053 1.14 115.943 -1.43051e-06 114.533 -1.43051e-06ZM125.007 0.839998C126.657 1.65 131.247 4.14 134.307 7.44C134.607 7.74 135.117 7.56 135.117 7.14V4.68C135.117 2.1 133.017 -1.43051e-06 130.467 -1.43051e-06H122.937C120.357 -1.43051e-06 118.287 2.1 118.287 4.68V9.42C118.287 10.2 118.497 10.92 118.947 11.52C121.677 15.18 127.197 18.18 128.937 19.08C129.237 19.23 129.357 19.62 129.207 19.92C129.057 20.22 128.667 20.37 128.367 20.19C126.747 19.38 122.157 16.89 119.067 13.59C118.797 13.29 118.287 13.47 118.287 13.89V16.35C118.287 18.93 120.357 21 122.937 21H130.467C133.017 21 135.117 18.93 135.117 16.35V11.61C135.117 10.83 134.877 10.11 134.427 9.51C131.697 5.85 126.207 2.85 124.467 1.95C124.167 1.8 124.017 1.41 124.167 1.11C124.317 0.809999 124.707 0.659999 125.007 0.839998ZM150.648 -1.43051e-06H146.808C146.328 -1.43051e-06 145.938 0.389999 145.938 0.87V8.1C145.938 8.43 145.668 8.7 145.338 8.7C145.008 8.7 144.738 8.43 144.738 8.1V0.87C144.738 0.389999 144.348 -1.43051e-06 143.898 -1.43051e-06H138.858C137.448 -1.43051e-06 136.338 1.14 136.338 2.55V18.48C136.338 19.89 137.448 21 138.858 21H143.898C144.348 21 144.738 20.64 144.738 20.16V10.44C144.738 10.11 145.008 9.84 145.338 9.84C145.668 9.84 145.938 10.11 145.938 10.44V20.16C145.938 20.64 146.328 21 146.808 21H150.648C152.028 21 153.168 19.89 153.168 18.48V2.55C153.168 1.14 152.028 -1.43051e-06 150.648 -1.43051e-06Z" fill="url(#paint0_linear_85_1004)"/>
<path d="M27.55 19.44L22.51 0.929999C22.36 0.389999 21.85 -1.43051e-06 21.31 -1.43051e-06H16.33C15.97 -1.43051e-06 15.67 0.209999 15.52 0.539999L14.77 2.19C14.56 2.61 13.96 2.55 13.84 2.1L13.45 0.659999C13.33 0.269999 13 -1.43051e-06 12.58 -1.43051e-06H7.09C6.52 -1.43051e-06 6.04 0.389999 5.89 0.929999L0.85 19.44C0.64 20.22 1.24 21 2.05 21H8.74C9.52 21 10.12 20.28 9.97 19.53L6.97 4.62C6.91 4.32 7.12 4.02 7.42 3.96C7.75 3.9 8.05 4.08 8.11 4.41L11.26 20.01C11.38 20.61 11.89 21 12.49 21H16.87C17.68 21 18.25 20.28 18.1 19.53L15.13 4.62C15.04 4.32 15.25 4.02 15.58 3.96C15.88 3.9 16.18 4.08 16.27 4.41L19.39 20.01C19.51 20.61 20.02 21 20.62 21H26.35C27.16 21 27.76 20.22 27.55 19.44ZM40.1758 -1.43051e-06H32.6458C30.0658 -1.43051e-06 27.9958 2.1 27.9958 4.68V16.35C27.9958 18.93 30.0658 21.03 32.6458 21.03H40.1758C42.7258 21.03 44.8258 18.93 44.8258 16.35V4.68C44.8258 2.1 42.7258 -1.43051e-06 40.1758 -1.43051e-06ZM37.6558 19.71C37.6558 20.07 37.3558 20.34 37.0258 20.34C36.6958 20.34 36.3958 20.07 36.3958 19.71V1.26C36.3958 0.929999 36.6958 0.629999 37.0258 0.629999C37.3558 0.629999 37.6558 0.929999 37.6558 1.26V19.71ZM58.1641 -1.43051e-06H50.6341C48.0541 -1.43051e-06 45.9841 2.1 45.9841 4.68V16.35C45.9841 18.93 48.0541 21.03 50.6341 21.03H58.1641C60.7141 21.03 62.8141 18.93 62.8141 16.35V4.68C62.8141 2.1 60.7141 -1.43051e-06 58.1641 -1.43051e-06ZM55.6441 19.71C55.6441 20.07 55.3441 20.34 55.0141 20.34C54.6841 20.34 54.3841 20.07 54.3841 19.71V1.26C54.3841 0.929999 54.6841 0.629999 55.0141 0.629999C55.3441 0.629999 55.6441 0.929999 55.6441 1.26V19.71ZM76.2423 -1.43051e-06H74.4723C74.7123 2.19 75.5823 3.75 76.6323 5.61C77.1123 6.48 77.6223 7.38 78.1023 8.43C79.6023 11.61 79.6623 14.76 79.6023 16.11C79.6023 16.47 79.2723 16.77 78.9123 16.71C78.5823 16.68 78.3423 16.38 78.3423 16.08C78.4023 14.85 78.3423 11.88 76.9923 8.97C76.5123 7.95 76.0023 7.08 75.5223 6.24C74.4423 4.26 73.4523 2.49 73.2123 -1.43051e-06H68.7123C66.1323 -1.43051e-06 64.0623 2.1 64.0623 4.68V21C64.0623 21 66.1323 21 68.7123 21H70.4523C70.2123 18.84 69.3423 17.28 68.2923 15.42C67.8123 14.55 67.3323 13.65 66.8223 12.6C65.3223 9.42 65.2623 6.27 65.3223 4.92C65.3523 4.56 65.6823 4.26 66.0423 4.32C66.3423 4.35 66.5823 4.65 66.5823 4.95C66.5223 6.18 66.5823 9.15 67.9623 12.06C68.4423 13.08 68.9223 13.95 69.4023 14.79C70.5123 16.77 71.4723 18.54 71.7123 21H76.2423C78.7923 21 80.8923 18.93 80.8923 16.35V-1.43051e-06C80.8923 -1.43051e-06 78.7923 -1.43051e-06 76.2423 -1.43051e-06ZM106.916 -1.43051e-06H100.226C99.4157 -1.43051e-06 98.8457 0.75 98.9957 1.5L101.966 16.38C102.026 16.71 101.846 17.01 101.516 17.07C101.216 17.13 100.886 16.95 100.826 16.62L97.7057 1.02C97.5857 0.419999 97.0757 -1.43051e-06 96.4757 -1.43051e-06H92.0657C91.2857 -1.43051e-06 90.6857 0.75 90.8357 1.5L93.8357 16.38C93.8957 16.71 93.6857 17.01 93.3857 17.07C93.0557 17.13 92.7557 16.95 92.6957 16.62L89.5757 1.02C89.4557 0.419999 88.9457 -1.43051e-06 88.3457 -1.43051e-06H82.6157C81.8057 -1.43051e-06 81.2057 0.809999 81.4157 1.59L86.4557 20.1C86.6057 20.64 87.0857 21 87.6557 21H92.6357C92.9657 21 93.2957 20.82 93.4457 20.49L94.1957 18.84C94.4057 18.42 95.0057 18.48 95.1257 18.93L95.5157 20.37C95.6357 20.76 95.9657 21 96.3557 21H101.876C102.416 21 102.926 20.64 103.076 20.1L108.116 1.59C108.326 0.809999 107.726 -1.43051e-06 106.916 -1.43051e-06ZM114.533 -1.43051e-06H111.173C109.763 -1.43051e-06 108.653 1.14 108.653 2.55V18.48C108.653 19.89 109.763 21 111.173 21H114.533C115.943 21 117.053 19.89 117.053 18.48V2.55C117.053 1.14 115.943 -1.43051e-06 114.533 -1.43051e-06ZM125.007 0.839998C126.657 1.65 131.247 4.14 134.307 7.44C134.607 7.74 135.117 7.56 135.117 7.14V4.68C135.117 2.1 133.017 -1.43051e-06 130.467 -1.43051e-06H122.937C120.357 -1.43051e-06 118.287 2.1 118.287 4.68V9.42C118.287 10.2 118.497 10.92 118.947 11.52C121.677 15.18 127.197 18.18 128.937 19.08C129.237 19.23 129.357 19.62 129.207 19.92C129.057 20.22 128.667 20.37 128.367 20.19C126.747 19.38 122.157 16.89 119.067 13.59C118.797 13.29 118.287 13.47 118.287 13.89V16.35C118.287 18.93 120.357 21 122.937 21H130.467C133.017 21 135.117 18.93 135.117 16.35V11.61C135.117 10.83 134.877 10.11 134.427 9.51C131.697 5.85 126.207 2.85 124.467 1.95C124.167 1.8 124.017 1.41 124.167 1.11C124.317 0.809999 124.707 0.659999 125.007 0.839998ZM150.648 -1.43051e-06H146.808C146.328 -1.43051e-06 145.938 0.389999 145.938 0.87V8.1C145.938 8.43 145.668 8.7 145.338 8.7C145.008 8.7 144.738 8.43 144.738 8.1V0.87C144.738 0.389999 144.348 -1.43051e-06 143.898 -1.43051e-06H138.858C137.448 -1.43051e-06 136.338 1.14 136.338 2.55V18.48C136.338 19.89 137.448 21 138.858 21H143.898C144.348 21 144.738 20.64 144.738 20.16V10.44C144.738 10.11 145.008 9.84 145.338 9.84C145.668 9.84 145.938 10.11 145.938 10.44V20.16C145.938 20.64 146.328 21 146.808 21H150.648C152.028 21 153.168 19.89 153.168 18.48V2.55C153.168 1.14 152.028 -1.43051e-06 150.648 -1.43051e-06Z" fill="black" fill-opacity="0.2"/>
<path d="M101.542 38.144C101.014 38.144 100.498 38.054 99.9941 37.874C99.5021 37.682 99.0941 37.4 98.7701 37.028L99.4721 36.056C99.7841 36.356 100.102 36.584 100.426 36.74C100.762 36.884 101.092 36.956 101.416 36.956C101.656 36.956 101.878 36.926 102.082 36.866C102.286 36.806 102.448 36.71 102.568 36.578C102.7 36.434 102.766 36.242 102.766 36.002C102.766 35.738 102.676 35.528 102.496 35.372C102.328 35.216 102.106 35.09 101.83 34.994C101.566 34.898 101.284 34.808 100.984 34.724C100.372 34.52 99.9041 34.238 99.5801 33.878C99.2561 33.518 99.0941 33.08 99.0941 32.564C99.0941 32.168 99.1901 31.802 99.3821 31.466C99.5861 31.118 99.8801 30.836 100.264 30.62C100.66 30.404 101.146 30.296 101.722 30.296C102.238 30.296 102.7 30.362 103.108 30.494C103.516 30.614 103.9 30.818 104.26 31.106L103.594 32.15C103.378 31.922 103.12 31.754 102.82 31.646C102.52 31.538 102.25 31.478 102.01 31.466C101.806 31.454 101.608 31.484 101.416 31.556C101.236 31.628 101.086 31.73 100.966 31.862C100.846 31.994 100.786 32.15 100.786 32.33C100.786 32.582 100.87 32.786 101.038 32.942C101.206 33.098 101.422 33.224 101.686 33.32C101.962 33.404 102.232 33.494 102.496 33.59C102.868 33.698 103.198 33.842 103.486 34.022C103.774 34.202 104.002 34.424 104.17 34.688C104.35 34.952 104.44 35.282 104.44 35.678C104.44 36.122 104.332 36.536 104.116 36.92C103.912 37.292 103.594 37.592 103.162 37.82C102.742 38.036 102.202 38.144 101.542 38.144ZM107.504 27.272H109.178V30.584H111.23V31.898H109.178V38H107.504V31.898H106.136V30.584H107.504V27.272ZM115.611 38.288C114.939 38.288 114.381 38.084 113.937 37.676C113.505 37.256 113.277 36.716 113.253 36.056V30.548H114.927V35.462C114.951 35.87 115.065 36.2 115.269 36.452C115.485 36.704 115.821 36.836 116.277 36.848C116.697 36.848 117.069 36.728 117.393 36.488C117.729 36.236 117.999 35.9 118.203 35.48C118.407 35.048 118.509 34.562 118.509 34.022V30.548H120.183V38H118.653L118.509 36.164L118.599 36.488C118.455 36.836 118.233 37.148 117.933 37.424C117.645 37.688 117.303 37.898 116.907 38.054C116.511 38.21 116.079 38.288 115.611 38.288ZM126.103 38.18C125.419 38.18 124.795 38.018 124.231 37.694C123.679 37.358 123.241 36.89 122.917 36.29C122.593 35.678 122.431 34.976 122.431 34.184C122.431 33.356 122.599 32.648 122.935 32.06C123.283 31.472 123.751 31.022 124.339 30.71C124.927 30.398 125.587 30.242 126.319 30.242C126.907 30.242 127.465 30.368 127.993 30.62C128.533 30.872 128.953 31.22 129.253 31.664L129.181 32.258V24.068H130.837V38H129.163V36.146L129.343 36.614C128.995 37.07 128.545 37.448 127.993 37.748C127.441 38.036 126.811 38.18 126.103 38.18ZM126.625 36.758C127.069 36.758 127.465 36.68 127.813 36.524C128.161 36.356 128.449 36.128 128.677 35.84C128.905 35.552 129.067 35.21 129.163 34.814V33.41C129.067 33.05 128.893 32.738 128.641 32.474C128.401 32.198 128.107 31.982 127.759 31.826C127.423 31.658 127.045 31.574 126.625 31.574C126.169 31.574 125.749 31.688 125.365 31.916C124.993 32.132 124.693 32.432 124.465 32.816C124.237 33.2 124.123 33.644 124.123 34.148C124.123 34.64 124.237 35.084 124.465 35.48C124.693 35.864 124.999 36.176 125.383 36.416C125.767 36.644 126.181 36.758 126.625 36.758ZM133.749 30.548H135.423V38H133.749V30.548ZM133.623 27.848C133.623 27.584 133.725 27.362 133.929 27.182C134.145 27.002 134.379 26.912 134.631 26.912C134.883 26.912 135.105 27.002 135.297 27.182C135.501 27.362 135.603 27.584 135.603 27.848C135.603 28.124 135.501 28.352 135.297 28.532C135.105 28.7 134.883 28.784 134.631 28.784C134.379 28.784 134.145 28.694 133.929 28.514C133.725 28.334 133.623 28.112 133.623 27.848ZM137.671 34.202C137.671 33.458 137.845 32.786 138.193 32.186C138.553 31.586 139.045 31.112 139.669 30.764C140.293 30.416 141.001 30.242 141.793 30.242C142.609 30.242 143.323 30.416 143.935 30.764C144.547 31.112 145.021 31.586 145.357 32.186C145.693 32.786 145.861 33.458 145.861 34.202C145.861 34.946 145.693 35.624 145.357 36.236C145.021 36.836 144.541 37.31 143.917 37.658C143.305 38.006 142.591 38.18 141.775 38.18C140.983 38.18 140.275 38.018 139.651 37.694C139.039 37.358 138.553 36.896 138.193 36.308C137.845 35.708 137.671 35.006 137.671 34.202ZM139.345 34.22C139.345 34.7 139.453 35.138 139.669 35.534C139.885 35.918 140.173 36.224 140.533 36.452C140.905 36.68 141.313 36.794 141.757 36.794C142.225 36.794 142.639 36.68 142.999 36.452C143.371 36.224 143.659 35.918 143.863 35.534C144.067 35.138 144.169 34.7 144.169 34.22C144.169 33.74 144.067 33.308 143.863 32.924C143.659 32.528 143.371 32.216 142.999 31.988C142.639 31.748 142.225 31.628 141.757 31.628C141.301 31.628 140.887 31.748 140.515 31.988C140.155 32.228 139.867 32.546 139.651 32.942C139.447 33.326 139.345 33.752 139.345 34.22ZM150.216 38.144C149.688 38.144 149.172 38.054 148.668 37.874C148.176 37.682 147.768 37.4 147.444 37.028L148.146 36.056C148.458 36.356 148.776 36.584 149.1 36.74C149.436 36.884 149.766 36.956 150.09 36.956C150.33 36.956 150.552 36.926 150.756 36.866C150.96 36.806 151.122 36.71 151.242 36.578C151.374 36.434 151.44 36.242 151.44 36.002C151.44 35.738 151.35 35.528 151.17 35.372C151.002 35.216 150.78 35.09 150.504 34.994C150.24 34.898 149.958 34.808 149.658 34.724C149.046 34.52 148.578 34.238 148.254 33.878C147.93 33.518 147.768 33.08 147.768 32.564C147.768 32.168 147.864 31.802 148.056 31.466C148.26 31.118 148.554 30.836 148.938 30.62C149.334 30.404 149.82 30.296 150.396 30.296C150.912 30.296 151.374 30.362 151.782 30.494C152.19 30.614 152.574 30.818 152.934 31.106L152.268 32.15C152.052 31.922 151.794 31.754 151.494 31.646C151.194 31.538 150.924 31.478 150.684 31.466C150.48 31.454 150.282 31.484 150.09 31.556C149.91 31.628 149.76 31.73 149.64 31.862C149.52 31.994 149.46 32.15 149.46 32.33C149.46 32.582 149.544 32.786 149.712 32.942C149.88 33.098 150.096 33.224 150.36 33.32C150.636 33.404 150.906 33.494 151.17 33.59C151.542 33.698 151.872 33.842 152.16 34.022C152.448 34.202 152.676 34.424 152.844 34.688C153.024 34.952 153.114 35.282 153.114 35.678C153.114 36.122 153.006 36.536 152.79 36.92C152.586 37.292 152.268 37.592 151.836 37.82C151.416 38.036 150.876 38.144 150.216 38.144Z" fill="#5C5C5C"/>
<defs>
<linearGradient id="paint0_linear_85_1004" x1="172.5" y1="14" x2="-28.5" y2="14" gradientUnits="userSpaceOnUse">
<stop stop-color="#C1C1C1"/>
<stop offset="1" stop-color="white" stop-opacity="0.9"/>
</linearGradient>
</defs>
</svg>
