<svg width="35" height="36" viewBox="0 0 35 36" fill="none" xmlns="http://www.w3.org/2000/svg">
<path d="M1.66007 33.3439L12.8973 22.1067M27.0479 17.1097L23.6842 27.2009C23.6305 27.3626 23.5386 27.5091 23.4163 27.6277C23.2939 27.7464 23.1447 27.8338 22.9814 27.8825L2.36107 34.0114C2.1753 34.0665 1.97795 34.0697 1.79051 34.0205C1.60306 33.9713 1.4327 33.8716 1.29797 33.7324C1.16323 33.5931 1.06928 33.4195 1.02634 33.2305C0.983395 33.0415 0.99311 32.8444 1.05442 32.6606L7.75012 12.577C7.79811 12.4328 7.87656 12.3006 7.98015 12.1894C8.08373 12.0782 8.21003 11.9906 8.35047 11.9325L17.8625 8.01609C18.0559 7.93623 18.2686 7.91541 18.4738 7.95626C18.679 7.99711 18.8675 8.0978 19.0156 8.24564L26.7919 16.0237C26.9314 16.163 27.0292 16.3384 27.0744 16.5303C27.1197 16.7221 27.1105 16.9228 27.0479 17.1097V17.1097Z" stroke="url(#paint0_linear_239_209)" stroke-width="2" stroke-linecap="round" stroke-linejoin="round"/>
<path d="M27.2561 16.4882L32.2497 11.4929C32.9117 10.8306 33.2836 9.93254 33.2836 8.99611C33.2836 8.05969 32.9117 7.1616 32.2497 6.49935L28.5063 2.75244C28.1783 2.42436 27.789 2.16411 27.3604 1.98655C26.9319 1.80898 26.4725 1.71759 26.0086 1.71759C25.5448 1.71759 25.0854 1.80898 24.6569 1.98655C24.2283 2.16411 23.8389 2.42436 23.511 2.75244L18.5175 7.74773M16.6423 18.3599C16.3962 18.1139 16.1042 17.9189 15.7828 17.7859C15.4614 17.6528 15.1169 17.5844 14.7691 17.5845C14.4212 17.5845 14.0768 17.6531 13.7554 17.7863C13.4341 17.9195 13.1421 18.1147 12.8962 18.3607C12.6503 18.6068 12.4553 18.8988 12.3222 19.2202C12.1892 19.5416 12.1208 19.8861 12.1208 20.2339C12.1209 20.5818 12.1895 20.9262 12.3227 21.2475C12.4559 21.5689 12.6511 21.8608 12.8971 22.1068C13.394 22.6034 14.0678 22.8823 14.7703 22.8821C15.4728 22.882 16.1465 22.6027 16.6431 22.1059C17.1398 21.609 17.4187 20.9352 17.4185 20.2327C17.4184 19.5302 17.1391 18.8565 16.6423 18.3599Z" stroke="url(#paint1_linear_239_209)" stroke-width="2" stroke-linecap="round" stroke-linejoin="round"/>
<defs>
<linearGradient id="paint0_linear_239_209" x1="-1.24462" y1="27.2414" x2="29.3716" y2="27.2691" gradientUnits="userSpaceOnUse">
<stop stop-color="#6F2CFF"/>
<stop offset="0.447917" stop-color="#974AFA"/>
<stop offset="1" stop-color="#4B70F3"/>
</linearGradient>
<linearGradient id="paint1_linear_239_209" x1="10.301" y1="17.3609" x2="35.1231" y2="17.3834" gradientUnits="userSpaceOnUse">
<stop stop-color="#6F2CFF"/>
<stop offset="0.447917" stop-color="#974AFA"/>
<stop offset="1" stop-color="#4B70F3"/>
</linearGradient>
</defs>
</svg>
