<svg width="35" height="35" viewBox="0 0 35 35" fill="none" xmlns="http://www.w3.org/2000/svg">
<path d="M1.66007 32.6263L12.8973 21.3891M27.0479 16.3921L23.6842 26.4833C23.6305 26.6451 23.5386 26.7915 23.4163 26.9101C23.2939 27.0288 23.1447 27.1162 22.9814 27.1649L2.36107 33.2938C2.1753 33.3489 1.97795 33.3521 1.79051 33.3029C1.60306 33.2537 1.4327 33.1541 1.29797 33.0148C1.16323 32.8755 1.06928 32.7019 1.02634 32.5129C0.983395 32.324 0.99311 32.1268 1.05442 31.943L7.75012 11.8594C7.79811 11.7152 7.87656 11.583 7.98015 11.4718C8.08373 11.3606 8.21003 11.273 8.35047 11.2149L17.8625 7.2985C18.0559 7.21864 18.2686 7.19782 18.4738 7.23867C18.679 7.27952 18.8675 7.38021 19.0156 7.52805L26.7919 15.3061C26.9314 15.4454 27.0292 15.6208 27.0744 15.8127C27.1197 16.0045 27.1105 16.2052 27.0479 16.3921V16.3921Z" stroke="url(#paint0_linear_223_238)" stroke-width="2" stroke-linecap="round" stroke-linejoin="round"/>
<path d="M27.2561 15.7706L32.2497 10.7753C32.9117 10.113 33.2836 9.21495 33.2836 8.27852C33.2836 7.3421 32.9117 6.44401 32.2497 5.78176L28.5063 2.03485C28.1783 1.70677 27.789 1.44652 27.3604 1.26896C26.9319 1.09139 26.4725 1 26.0086 1C25.5448 1 25.0854 1.09139 24.6569 1.26896C24.2283 1.44652 23.8389 1.70677 23.511 2.03485L18.5175 7.03014M16.6423 17.6423C16.3962 17.3964 16.1042 17.2013 15.7828 17.0683C15.4614 16.9352 15.1169 16.8668 14.7691 16.8669C14.4212 16.867 14.0768 16.9356 13.7554 17.0687C13.4341 17.2019 13.1421 17.3971 12.8962 17.6431C12.6503 17.8892 12.4553 18.1812 12.3222 18.5026C12.1892 18.824 12.1208 19.1685 12.1208 19.5163C12.1209 19.8642 12.1895 20.2086 12.3227 20.53C12.4559 20.8513 12.6511 21.1433 12.8971 21.3892C13.394 21.8858 14.0678 22.1647 14.7703 22.1646C15.4728 22.1644 16.1465 21.8852 16.6431 21.3883C17.1398 20.8914 17.4187 20.2176 17.4185 19.5151C17.4184 18.8126 17.1391 18.1389 16.6423 17.6423Z" stroke="url(#paint1_linear_223_238)" stroke-width="2" stroke-linecap="round" stroke-linejoin="round"/>
<defs>
<linearGradient id="paint0_linear_223_238" x1="-1.24462" y1="26.5238" x2="29.3716" y2="26.5515" gradientUnits="userSpaceOnUse">
<stop stop-color="#6F2CFF"/>
<stop offset="0.447917" stop-color="#974AFA"/>
<stop offset="1" stop-color="#4B70F3"/>
</linearGradient>
<linearGradient id="paint1_linear_223_238" x1="10.301" y1="16.6433" x2="35.1231" y2="16.6658" gradientUnits="userSpaceOnUse">
<stop stop-color="#6F2CFF"/>
<stop offset="0.447917" stop-color="#974AFA"/>
<stop offset="1" stop-color="#4B70F3"/>
</linearGradient>
</defs>
</svg>
