<svg width="14" height="14" viewBox="0 0 14 14" fill="none" xmlns="http://www.w3.org/2000/svg">
<path d="M13.2222 7C13.0148 7 12.8302 6.92533 12.6684 6.776C12.5061 6.62719 12.412 6.44259 12.3861 6.22222C12.2176 5.01667 11.7089 3.98922 10.8601 3.13989C10.0108 2.29107 8.98333 1.78241 7.77778 1.61389C7.55741 1.58796 7.37282 1.49722 7.224 1.34167C7.07467 1.18611 7 0.998148 7 0.777778C7 0.557407 7.07778 0.372556 7.23333 0.223222C7.38889 0.0744074 7.57037 0.0129629 7.77778 0.0388889C9.41111 0.22037 10.8046 0.887963 11.9583 2.04167C13.112 3.19537 13.7796 4.58889 13.9611 6.22222C13.987 6.42963 13.9253 6.61111 13.776 6.76667C13.6272 6.92222 13.4426 7 13.2222 7ZM9.975 7C9.80648 7 9.65741 6.94167 9.52778 6.825C9.39815 6.70833 9.30093 6.55278 9.23611 6.35833C9.13241 5.98241 8.93485 5.64848 8.64344 5.35656C8.35152 5.06515 8.01759 4.86759 7.64167 4.76389C7.44722 4.69907 7.29167 4.60185 7.175 4.47222C7.05833 4.34259 7 4.18704 7 4.00556C7 3.7463 7.09074 3.53552 7.27222 3.37322C7.4537 3.21144 7.65463 3.15648 7.875 3.20833C8.60093 3.37685 9.22652 3.72348 9.75178 4.24822C10.2765 4.77348 10.6231 5.39907 10.7917 6.125C10.8435 6.34537 10.7852 6.5463 10.6167 6.72778C10.4481 6.90926 10.2343 7 9.975 7V7ZM13.1833 14C11.5111 14 9.88115 13.6272 8.29344 12.8816C6.70522 12.1364 5.29874 11.1513 4.074 9.926C2.84874 8.70126 1.86356 7.29478 1.11844 5.70656C0.372815 4.11885 0 2.48889 0 0.816667C0 0.583333 0.0777777 0.388889 0.233333 0.233333C0.388889 0.0777777 0.583333 0 0.816667 0H3.96667C4.14815 0 4.31019 0.0583333 4.45278 0.175C4.59537 0.291667 4.67963 0.440741 4.70556 0.622222L5.21111 3.34444C5.23704 3.52593 5.23393 3.69107 5.20178 3.83989C5.16911 3.98922 5.09444 4.12222 4.97778 4.23889L3.11111 6.14444C3.65556 7.07778 4.33611 7.95278 5.15278 8.76944C5.96944 9.58611 6.87037 10.2926 7.85556 10.8889L9.68333 9.06111C9.8 8.94444 9.95244 8.85682 10.1407 8.79822C10.3284 8.74015 10.513 8.72407 10.6944 8.75L13.3778 9.29444C13.5593 9.33333 13.7083 9.4207 13.825 9.55656C13.9417 9.69293 14 9.85185 14 10.0333V13.1833C14 13.4167 13.9222 13.6111 13.7667 13.7667C13.6111 13.9222 13.4167 14 13.1833 14Z" fill="#5C5C5C"/>
</svg>
