<svg width="30" height="30" viewBox="0 0 30 30" fill="none" xmlns="http://www.w3.org/2000/svg">
<path d="M8.33333 23.3333C8.80556 23.3333 9.20167 23.1733 9.52167 22.8533C9.84056 22.5344 10 22.1389 10 21.6667V13.3333C10 12.8611 9.84056 12.465 9.52167 12.145C9.20167 11.8261 8.80556 11.6667 8.33333 11.6667C7.86111 11.6667 7.465 11.8261 7.145 12.145C6.82611 12.465 6.66667 12.8611 6.66667 13.3333V21.6667C6.66667 22.1389 6.82611 22.5344 7.145 22.8533C7.465 23.1733 7.86111 23.3333 8.33333 23.3333ZM15 23.3333C15.4722 23.3333 15.8683 23.1733 16.1883 22.8533C16.5072 22.5344 16.6667 22.1389 16.6667 21.6667V8.33333C16.6667 7.86111 16.5072 7.465 16.1883 7.145C15.8683 6.82611 15.4722 6.66667 15 6.66667C14.5278 6.66667 14.1322 6.82611 13.8133 7.145C13.4933 7.465 13.3333 7.86111 13.3333 8.33333V21.6667C13.3333 22.1389 13.4933 22.5344 13.8133 22.8533C14.1322 23.1733 14.5278 23.3333 15 23.3333ZM21.6667 23.3333C22.1389 23.3333 22.5344 23.1733 22.8533 22.8533C23.1733 22.5344 23.3333 22.1389 23.3333 21.6667V18.3333C23.3333 17.8611 23.1733 17.465 22.8533 17.145C22.5344 16.8261 22.1389 16.6667 21.6667 16.6667C21.1944 16.6667 20.7989 16.8261 20.48 17.145C20.16 17.465 20 17.8611 20 18.3333V21.6667C20 22.1389 20.16 22.5344 20.48 22.8533C20.7989 23.1733 21.1944 23.3333 21.6667 23.3333ZM3.33333 30C2.41667 30 1.63167 29.6739 0.978333 29.0217C0.326111 28.3683 0 27.5833 0 26.6667V3.33333C0 2.41667 0.326111 1.63167 0.978333 0.978333C1.63167 0.326111 2.41667 0 3.33333 0H16.6667C17.1389 0 17.535 0.159444 17.855 0.478333C18.1739 0.798333 18.3333 1.19444 18.3333 1.66667C18.3333 2.13889 18.1739 2.53444 17.855 2.85333C17.535 3.17333 17.1389 3.33333 16.6667 3.33333H3.33333V26.6667H26.6667V13.3333C26.6667 12.8611 26.8267 12.465 27.1467 12.145C27.4656 11.8261 27.8611 11.6667 28.3333 11.6667C28.8056 11.6667 29.2011 11.8261 29.52 12.145C29.84 12.465 30 12.8611 30 13.3333V26.6667C30 27.5833 29.6739 28.3683 29.0217 29.0217C28.3683 29.6739 27.5833 30 26.6667 30H3.33333ZM25 10C24.5278 10 24.1322 9.84 23.8133 9.52C23.4933 9.20111 23.3333 8.80556 23.3333 8.33333V6.66667H21.6667C21.1944 6.66667 20.7989 6.50722 20.48 6.18833C20.16 5.86833 20 5.47222 20 5C20 4.52778 20.16 4.13167 20.48 3.81167C20.7989 3.49278 21.1944 3.33333 21.6667 3.33333H23.3333V1.66667C23.3333 1.19444 23.4933 0.798333 23.8133 0.478333C24.1322 0.159444 24.5278 0 25 0C25.4722 0 25.8678 0.159444 26.1867 0.478333C26.5067 0.798333 26.6667 1.19444 26.6667 1.66667V3.33333H28.3333C28.8056 3.33333 29.2011 3.49278 29.52 3.81167C29.84 4.13167 30 4.52778 30 5C30 5.47222 29.84 5.86833 29.52 6.18833C29.2011 6.50722 28.8056 6.66667 28.3333 6.66667H26.6667V8.33333C26.6667 8.80556 26.5067 9.20111 26.1867 9.52C25.8678 9.84 25.4722 10 25 10Z" fill="url(#paint0_linear_223_237)"/>
<defs>
<linearGradient id="paint0_linear_223_237" x1="-2.57975" y1="22.1738" x2="32.6076" y2="22.2057" gradientUnits="userSpaceOnUse">
<stop stop-color="#6F2CFF"/>
<stop offset="0.447917" stop-color="#974AFA"/>
<stop offset="1" stop-color="#4B70F3"/>
</linearGradient>
</defs>
</svg>
