<svg width="44" height="32" viewBox="0 0 44 32" fill="none" xmlns="http://www.w3.org/2000/svg">
<path d="M11 32C7.96667 32 5.37533 30.95 3.226 28.85C1.07533 26.75 0 24.1833 0 21.15C0 18.55 0.783333 16.2333 2.35 14.2C3.91667 12.1667 5.96667 10.8667 8.5 10.3C9.33333 7.23333 11 4.75 13.5 2.85C16 0.95 18.8333 0 22 0C25.9 0 29.208 1.358 31.924 4.074C34.6413 6.79133 36 10.1 36 14C38.3 14.2667 40.2087 15.258 41.726 16.974C43.242 18.6913 44 20.7 44 23C44 25.5 43.1253 27.6253 41.376 29.376C39.6253 31.1253 37.5 32 35 32H11Z" fill="url(#paint0_linear_92_2613)"/>
<defs>
<linearGradient id="paint0_linear_92_2613" x1="-3.78363" y1="23.6521" x2="47.8245" y2="23.7164" gradientUnits="userSpaceOnUse">
<stop stop-color="#6F2CFF"/>
<stop offset="0.447917" stop-color="#974AFA"/>
<stop offset="1" stop-color="#4B70F3"/>
</linearGradient>
</defs>
</svg>
